<svg xmlns="http://www.w3.org/2000/svg" version="1.1" width="3300" height="2000"><g id="Notes"><style>
    text {
      font-family: monospace;
      text-anchor: middle;
    }
    text.emphasis {
      font-weight:bold;
    }
    text.lanchor {
      text-anchor: start;
    }
  </style><rect height="2200" id="artboard" fill="white" width="3300" x="0" y="0"/><line id="" style="fill:none;stroke:black;stroke-width:0.5;" x1="263" x2="3036" y1="292" y2="292"/><text class="lanchor emphasis" transform="matrix(1 0 0 1 263 322)">Weight/Scale Variations</text><text transform="matrix(1 0 0 1 559.711 322)">Ultralight</text><text transform="matrix(1 0 0 1 856.422 322)">Thin</text><text transform="matrix(1 0 0 1 1153.13 322)">Light</text><text transform="matrix(1 0 0 1 1449.84 322)">Regular</text><text transform="matrix(1 0 0 1 1746.56 322)">Medium</text><text transform="matrix(1 0 0 1 2043.27 322)">Semibold</text><text transform="matrix(1 0 0 1 2339.98 322)">Bold</text><text transform="matrix(1 0 0 1 2636.69 322)">Heavy</text><text transform="matrix(1 0 0 1 2933.4 322)">Black</text><text id="template-version" style="text-anchor: end;" transform="matrix(1 0 0 1 3036 1933)">Template v.1.0</text><text class="lanchor" transform="matrix(1 0 0 1 263 726)">Small</text><text class="lanchor" transform="matrix(1 0 0 1 263 1156)">Medium</text><text class="lanchor" transform="matrix(1 0 0 1 263 1586)">Large</text></g><g id="Guides"><g id="H-reference" style="fill:#27AAE1;stroke:none;" transform="matrix(1 0 0 1 339 696)"><path d="M 54.9316 0 L 57.666 0 L 30.5664 -70.459 L 28.0762 -70.459 L 0.976562 0 L 3.66211 0 L 12.9395 -24.4629 L 45.7031 -24.4629 Z M 29.1992 -67.0898 L 29.4434 -67.0898 L 44.8242 -26.709 L 13.8184 -26.709 Z"/></g><line id="Baseline-S" style="fill:none;stroke:#27AAE1;opacity:1;stroke-width:0.577;" x1="263" x2="3036" y1="696" y2="696"/><line id="Capline-S" style="fill:none;stroke:#27AAE1;opacity:1;stroke-width:0.577;" x1="263" x2="3036" y1="625.541" y2="625.541"/><g id="H-reference" style="fill:#27AAE1;stroke:none;" transform="matrix(1 0 0 1 339 1126)"><path d="M 54.9316 0 L 57.666 0 L 30.5664 -70.459 L 28.0762 -70.459 L 0.976562 0 L 3.66211 0 L 12.9395 -24.4629 L 45.7031 -24.4629 Z M 29.1992 -67.0898 L 29.4434 -67.0898 L 44.8242 -26.709 L 13.8184 -26.709 Z"/></g><line id="Baseline-M" style="fill:none;stroke:#27AAE1;opacity:1;stroke-width:0.577;" x1="263" x2="3036" y1="1126" y2="1126"/><line id="Capline-M" style="fill:none;stroke:#27AAE1;opacity:1;stroke-width:0.577;" x1="263" x2="3036" y1="1055.54" y2="1055.54"/><g id="H-reference" style="fill:#27AAE1;stroke:none;" transform="matrix(1 0 0 1 339 1556)"><path d="M 54.9316 0 L 57.666 0 L 30.5664 -70.459 L 28.0762 -70.459 L 0.976562 0 L 3.66211 0 L 12.9395 -24.4629 L 45.7031 -24.4629 Z M 29.1992 -67.0898 L 29.4434 -67.0898 L 44.8242 -26.709 L 13.8184 -26.709 Z"/></g><line id="Baseline-L" style="fill:none;stroke:#27AAE1;opacity:1;stroke-width:0.577;" x1="263" x2="3036" y1="1556" y2="1556"/><line id="Capline-L" style="fill:none;stroke:#27AAE1;opacity:1;stroke-width:0.577;" x1="263" x2="3036" y1="1485.54" y2="1485.54"/><rect height="119.336" id="left-margin" style="fill:darkred;stroke:none;opacity:0.4;" width="12.4512" x="1394.06" y="1030.79"/><rect height="119.336" id="right-margin" style="fill:darkgreen;stroke:none;opacity:0.4;" width="12.4512" x="1502.5112" y="1030.79"/><rect x="1406.5112" y="1045" width="96" height="96" fill="none" stroke="blue" stroke-dasharray="5"/><rect x="1394.06" y="1030.79" width="120.9024" height="119.336" fill="none" stroke="blue"/></g><g id="Symbols"><g id="Bold-L" transform="matrix(1 0 0 1 2266 1556)"><path d="M30.476 33.301 Q24.179 33.301 19.749 28.871 Q15.319 24.441 15.319 18.144 V-78.929 Q15.319 -85.292 19.749 -89.77 Q24.179 -94.247 30.476 -94.247 H39.506 V-103.922 H52.729 V-94.247 H102.071 V-103.922 H115.294 V-94.247 H124.324 Q130.687 -94.247 135.165 -89.77 Q139.643 -85.292 139.643 -78.929 V-31.682 H124.324 V-49.742 H30.476 V18.144 Q30.476 18.144 30.476 18.144 Q30.476 18.144 30.476 18.144 H76.11 V33.301 H30.476 Z M122.55 47.33 Q110.424 47.33 101.249 40.074 Q92.074 32.818 89.332 22.336 H106.425 Q108.199 26.368 112.443 29.27 Q116.686 32.173 122.55 32.173 Q130.633 32.173 136.347 26.458 Q142.061 20.745 142.061 12.661 Q142.061 4.52 136.337 -1.084 Q130.613 -6.689 122.55 -6.689 Q118.943 -6.689 115.954 -5.633 Q112.964 -4.576 110.94 -2.657 H118.358 V12.661 H85.14 V-20.556 H100.297 V-13.945 Q104.719 -17.637 110.4 -19.822 Q116.08 -22.007 122.55 -22.007 Q137.05 -22.007 147.135 -11.921 Q157.219 -1.834 157.219 12.59 Q157.219 27.014 147.135 37.172 Q137.05 47.33 122.55 47.33 Z M30.476 -59.417 H124.324 V-78.929 Q124.324 -78.929 124.324 -78.929 Q124.324 -78.929 124.324 -78.929 H30.476 Q30.476 -78.929 30.476 -78.929 Q30.476 -78.929 30.476 -78.929 V-59.417 Z"/></g><g id="Semibold-L" transform="matrix(1 0 0 1 1970.27 1556)"><path d="M29.845 31.549 Q24.604 31.549 20.838 27.782 Q17.071 24.016 17.071 18.775 V-79.56 Q17.071 -84.839 20.838 -88.632 Q24.604 -92.425 29.845 -92.425 H39.506 V-102.1 H51.537 V-92.425 H103.263 V-102.1 H115.294 V-92.425 H124.955 Q130.234 -92.425 134.027 -88.632 Q137.82 -84.839 137.82 -79.56 V-31.823 H124.955 V-49.742 H29.845 V18.775 Q29.845 18.775 29.845 18.775 Q29.845 18.775 29.845 18.775 H78.353 V31.549 H29.845 Z M122.55 45.087 Q110.578 45.087 101.572 37.795 Q92.564 30.504 90.034 19.742 H104.041 Q105.955 25.106 110.913 28.709 Q115.871 32.313 122.55 32.313 Q131.185 32.313 137.289 26.209 Q143.393 20.105 143.393 11.469 Q143.393 2.802 137.283 -3.24 Q131.173 -9.283 122.55 -9.283 Q118.478 -9.283 115.036 -7.95 Q111.593 -6.616 109.117 -4.2 H117.376 V8.665 H87.383 V-21.327 H100.157 V-13.594 Q104.55 -17.504 110.284 -19.826 Q116.019 -22.148 122.55 -22.148 Q136.565 -22.148 146.366 -12.345 Q156.167 -2.543 156.167 11.429 Q156.167 25.401 146.366 35.244 Q136.565 45.087 122.55 45.087 Z M29.845 -59.417 H124.955 V-79.56 Q124.955 -79.56 124.955 -79.56 Q124.955 -79.56 124.955 -79.56 H29.845 Q29.845 -79.56 29.845 -79.56 Q29.845 -79.56 29.845 -79.56 V-59.417 Z"/></g><g id="Medium-L" transform="matrix(1 0 0 1 1674.31 1556)"><path d="M29.372 30.234 Q24.922 30.234 21.654 26.966 Q18.386 23.698 18.386 19.248 V-80.033 Q18.386 -84.499 21.654 -87.778 Q24.922 -91.058 29.372 -91.058 H39.506 V-100.733 H50.643 V-91.058 H104.157 V-100.733 H115.294 V-91.058 H125.428 Q129.894 -91.058 133.173 -87.778 Q136.453 -84.499 136.453 -80.033 V-31.928 H125.428 V-49.742 H29.372 V19.248 Q29.372 19.248 29.372 19.248 Q29.372 19.248 29.372 19.248 H80.036 V30.234 H29.372 Z M122.55 43.404 Q110.694 43.404 101.813 36.086 Q92.933 28.769 90.559 17.797 H102.254 Q104.273 24.159 109.766 28.288 Q115.259 32.418 122.55 32.418 Q131.599 32.418 137.996 26.021 Q144.392 19.625 144.392 10.575 Q144.392 1.513 137.993 -4.858 Q131.594 -11.228 122.55 -11.228 Q118.129 -11.228 114.347 -9.688 Q110.565 -8.147 107.75 -5.357 H116.64 V5.668 H89.066 V-21.906 H100.052 V-13.332 Q104.422 -17.404 110.197 -19.829 Q115.973 -22.253 122.55 -22.253 Q136.201 -22.253 145.79 -12.663 Q155.378 -3.074 155.378 10.559 Q155.378 24.191 145.79 33.798 Q136.201 43.404 122.55 43.404 Z M29.372 -59.417 H125.428 V-80.033 Q125.428 -80.033 125.428 -80.033 Q125.428 -80.033 125.428 -80.033 H29.372 Q29.372 -80.033 29.372 -80.033 Q29.372 -80.033 29.372 -80.033 V-59.417 Z"/></g><g id="Regular-L" transform="matrix(1 0 0 1 1378.56 1556)"><path d="M29.025 29.27 Q25.155 29.27 22.253 26.368 Q19.35 23.465 19.35 19.595 V-80.38 Q19.35 -84.25 22.253 -87.152 Q25.155 -90.055 29.025 -90.055 H39.506 V-99.73 H49.988 V-90.055 H104.812 V-99.73 H115.294 V-90.055 H125.775 Q129.645 -90.055 132.548 -87.152 Q135.45 -84.25 135.45 -80.38 V-32.005 H125.775 V-49.742 H29.025 V19.595 Q29.025 19.595 29.025 19.595 Q29.025 19.595 29.025 19.595 H81.27 V29.27 H29.025 Z M122.55 42.17 Q110.779 42.17 101.991 34.833 Q93.203 27.496 90.945 16.37 H100.943 Q103.039 23.465 108.924 27.98 Q114.81 32.495 122.55 32.495 Q131.903 32.495 138.514 25.884 Q145.125 19.273 145.125 9.92 Q145.125 0.568 138.514 -6.044 Q131.903 -12.655 122.55 -12.655 Q117.874 -12.655 113.843 -10.962 Q109.811 -9.269 106.748 -6.205 H116.1 V3.47 H90.3 V-22.33 H99.975 V-13.139 Q104.329 -17.331 110.134 -19.831 Q115.939 -22.33 122.55 -22.33 Q135.934 -22.33 145.367 -12.897 Q154.8 -3.464 154.8 9.92 Q154.8 23.304 145.367 32.737 Q135.934 42.17 122.55 42.17 Z M29.025 -59.417 H125.775 V-80.38 Q125.775 -80.38 125.775 -80.38 Q125.775 -80.38 125.775 -80.38 H29.025 Q29.025 -80.38 29.025 -80.38 Q29.025 -80.38 29.025 -80.38 V-59.417 Z"/></g><g id="Light-L" transform="matrix(1 0 0 1 1082.77 1556)"><path d="M31.878 26.045 Q28.084 26.045 25.33 23.29 Q22.575 20.536 22.575 16.742 V-76.659 Q22.575 -80.453 25.33 -83.207 Q28.084 -85.962 31.878 -85.962 H43.786 V-97.249 H51.91 V-85.962 H103.138 V-97.249 H111.076 V-85.962 H122.922 Q126.716 -85.962 129.47 -83.207 Q132.225 -80.453 132.225 -76.659 V-31.881 H124.907 V-47.324 H29.893 V16.742 Q29.893 17.486 30.513 18.107 Q31.134 18.727 31.878 18.727 H81.146 V26.045 H31.878 Z M122.55 41.178 Q111.523 41.178 103.138 34.399 Q94.753 27.62 92.248 17.362 H100.26 Q102.605 24.519 108.614 29.003 Q114.624 33.487 122.55 33.487 Q132.337 33.487 139.227 26.597 Q146.117 19.707 146.117 9.92 Q146.117 0.133 139.227 -6.757 Q132.337 -13.647 122.55 -13.647 Q117.254 -13.647 112.54 -11.365 Q107.826 -9.083 104.329 -5.213 H115.108 V2.478 H91.292 V-21.338 H98.983 V-10.782 Q103.46 -15.533 109.576 -18.435 Q115.691 -21.338 122.55 -21.338 Q135.5 -21.338 144.654 -12.184 Q153.808 -3.03 153.808 9.92 Q153.808 22.87 144.654 32.024 Q135.5 41.178 122.55 41.178 Z M29.893 -54.642 H124.907 V-76.659 Q124.907 -77.403 124.287 -78.023 Q123.666 -78.643 122.922 -78.643 H31.878 Q31.134 -78.643 30.513 -78.023 Q29.893 -77.403 29.893 -76.659 V-54.642 Z"/></g><g id="Thin-L" transform="matrix(1 0 0 1 787.282 1556)"><path d="M34.731 22.82 Q31.013 22.82 28.406 20.214 Q25.8 17.607 25.8 13.889 V-72.938 Q25.8 -76.656 28.406 -79.262 Q31.013 -81.868 34.731 -81.868 H48.065 V-94.768 H53.833 V-81.868 H101.463 V-94.768 H106.859 V-81.868 H120.069 Q123.787 -81.868 126.394 -79.262 Q129 -76.656 129 -72.938 V-31.757 H124.038 V-44.905 H30.762 V13.889 Q30.762 15.378 32.002 16.618 Q33.242 17.858 34.731 17.858 H81.022 V22.82 H34.731 Z M122.55 40.185 Q112.267 40.185 104.285 33.965 Q96.303 27.744 93.55 18.355 H99.578 Q102.17 25.574 108.304 30.027 Q114.438 34.48 122.55 34.48 Q132.771 34.48 139.94 27.31 Q147.11 20.141 147.11 9.92 Q147.11 -0.301 139.94 -7.47 Q132.771 -14.64 122.55 -14.64 Q116.633 -14.64 111.238 -11.768 Q105.842 -8.897 101.91 -4.22 H114.115 V1.485 H92.285 V-20.345 H97.99 V-8.425 Q102.592 -13.734 109.017 -17.04 Q115.443 -20.345 122.55 -20.345 Q135.065 -20.345 143.94 -11.47 Q152.815 -2.595 152.815 9.92 Q152.815 22.435 143.94 31.31 Q135.065 40.185 122.55 40.185 Z M30.762 -49.867 H124.038 V-72.938 Q124.038 -74.426 122.798 -75.667 Q121.558 -76.907 120.069 -76.907 H34.731 Q33.242 -76.907 32.002 -75.667 Q30.762 -74.426 30.762 -72.938 V-49.867 Z"/></g><g id="Ultralight-L" transform="matrix(1 0 0 1 491.205 1556)"><path d="M36.443 20.885 Q32.77 20.885 30.253 18.367 Q27.735 15.85 27.735 12.178 V-70.705 Q27.735 -74.377 30.253 -76.895 Q32.77 -79.412 36.443 -79.412 H50.633 V-93.28 H54.986 V-79.412 H100.459 V-93.28 H104.329 V-79.412 H118.358 Q122.03 -79.412 124.548 -76.895 Q127.065 -74.377 127.065 -70.705 V-31.682 H123.517 V-43.454 H31.283 V12.178 Q31.283 14.113 32.895 15.725 Q34.508 17.338 36.443 17.338 H80.948 V20.885 H36.443 Z M122.55 39.59 Q112.714 39.59 104.974 33.704 Q97.234 27.819 94.331 18.95 H99.169 Q101.91 26.206 108.118 30.641 Q114.326 35.075 122.55 35.075 Q133.031 35.075 140.368 27.738 Q147.705 20.401 147.705 9.92 Q147.705 -0.561 140.368 -7.898 Q133.031 -15.235 122.55 -15.235 Q116.261 -15.235 110.456 -12.01 Q104.651 -8.785 100.459 -3.625 H113.52 V0.89 H92.88 V-19.75 H97.395 V-7.011 Q102.071 -12.655 108.683 -16.202 Q115.294 -19.75 122.55 -19.75 Q134.805 -19.75 143.513 -11.042 Q152.22 -2.335 152.22 9.92 Q152.22 22.175 143.513 30.883 Q134.805 39.59 122.55 39.59 Z M31.283 -47.001 H123.517 V-70.705 Q123.517 -72.64 121.905 -74.252 Q120.293 -75.865 118.358 -75.865 H36.443 Q34.508 -75.865 32.895 -74.252 Q31.283 -72.64 31.283 -70.705 V-47.001 Z"/></g><g id="Bold-M" transform="matrix(1 0 0 1 2281.8 1126)"><path d="M26.5 19.02 Q19.875 19.02 15.312 14.458 Q10.75 9.895 10.75 3.27 V-63.73 Q10.75 -70.355 15.312 -74.917 Q19.875 -79.48 26.5 -79.48 H30 V-89.48 H42.875 V-79.48 H77.125 V-89.48 H90 V-79.48 H93.5 Q100.125 -79.48 104.688 -74.917 Q109.25 -70.355 109.25 -63.73 V-34.855 H93.5 V-45.23 H26.5 V3.27 Q26.5 3.27 26.5 3.27 Q26.5 3.27 26.5 3.27 H54.625 V19.02 H26.5 Z M95 30.145 Q85.5 30.145 78.312 24.52 Q71.125 18.895 68.875 10.895 H83.875 Q85.25 13.395 88.125 15.145 Q91 16.895 95 16.895 Q100.904 16.895 105.077 12.722 Q109.25 8.549 109.25 2.645 Q109.25 -3.355 105.125 -7.48 Q101 -11.605 95 -11.605 Q92.5 -11.605 90.438 -10.917 Q88.375 -10.23 87 -8.98 H92.25 V4.27 H64.625 V-23.355 H77.875 V-18.855 Q81.178 -21.592 85.581 -23.223 Q89.985 -24.855 95 -24.855 Q106.5 -24.855 114.5 -16.855 Q122.5 -8.855 122.5 2.583 Q122.5 14.021 114.5 22.083 Q106.5 30.145 95 30.145 Z M26.5 -55.23 H93.5 V-63.73 Q93.5 -63.73 93.5 -63.73 Q93.5 -63.73 93.5 -63.73 H26.5 Q26.5 -63.73 26.5 -63.73 Q26.5 -63.73 26.5 -63.73 V-55.23 Z"/></g><g id="Semibold-M" transform="matrix(1 0 0 1 1985.97 1126)"><path d="M25.848 17.172 Q20.31 17.172 16.454 13.316 Q12.598 9.46 12.598 3.922 V-64.382 Q12.598 -69.92 16.454 -73.776 Q20.31 -77.632 25.848 -77.632 H30 V-87.632 H41.625 V-77.632 H78.375 V-87.632 H90 V-77.632 H94.152 Q99.69 -77.632 103.546 -73.776 Q107.402 -69.92 107.402 -64.382 V-35.018 H94.152 V-45.23 H25.848 V3.922 Q25.848 3.922 25.848 3.922 Q25.848 3.922 25.848 3.922 H56.962 V17.172 H25.848 Z M95 27.808 Q85.663 27.808 78.639 22.156 Q71.614 16.504 69.582 8.232 H81.43 Q82.913 12.036 86.522 14.547 Q90.13 17.058 95 17.058 Q101.489 17.058 106.076 12.471 Q110.663 7.884 110.663 1.395 Q110.663 -5.148 106.103 -9.708 Q101.543 -14.268 95 -14.268 Q92.011 -14.268 89.487 -13.309 Q86.962 -12.349 85.152 -10.61 H91.272 V0.14 H66.962 V-24.17 H77.712 V-18.529 Q81.046 -21.489 85.492 -23.253 Q89.937 -25.018 95 -25.018 Q106.011 -25.018 113.712 -17.317 Q121.413 -9.616 121.413 1.36 Q121.413 12.336 113.712 20.072 Q106.011 27.808 95 27.808 Z M25.848 -55.23 H94.152 V-64.382 Q94.152 -64.382 94.152 -64.382 Q94.152 -64.382 94.152 -64.382 H25.848 Q25.848 -64.382 25.848 -64.382 Q25.848 -64.382 25.848 -64.382 V-55.23 Z"/></g><g id="Medium-M" transform="matrix(1 0 0 1 1689.91 1126)"><path d="M25.359 15.786 Q20.636 15.786 17.31 12.46 Q13.984 9.134 13.984 4.411 V-64.871 Q13.984 -69.594 17.31 -72.92 Q20.636 -76.246 25.359 -76.246 H30 V-86.246 H40.688 V-76.246 H79.312 V-86.246 H90 V-76.246 H94.641 Q99.364 -76.246 102.69 -72.92 Q106.016 -69.594 106.016 -64.871 V-35.14 H94.641 V-45.23 H25.359 V4.411 Q25.359 4.411 25.359 4.411 Q25.359 4.411 25.359 4.411 H58.715 V15.786 H25.359 Z M95 26.055 Q85.785 26.055 78.883 20.383 Q71.981 14.71 70.111 6.235 H79.595 Q81.16 11.017 85.319 14.099 Q89.478 17.18 95 17.18 Q101.928 17.18 106.825 12.283 Q111.723 7.386 111.723 0.458 Q111.723 -6.494 106.837 -11.379 Q101.951 -16.265 95 -16.265 Q91.644 -16.265 88.773 -15.102 Q85.902 -13.939 83.766 -11.833 H90.538 V-2.958 H68.715 V-24.782 H77.59 V-18.284 Q80.947 -21.412 85.424 -23.276 Q89.901 -25.14 95 -25.14 Q105.644 -25.14 113.121 -17.663 Q120.598 -10.186 120.598 0.443 Q120.598 11.072 113.121 18.564 Q105.644 26.055 95 26.055 Z M25.359 -55.23 H94.641 V-64.871 Q94.641 -64.871 94.641 -64.871 Q94.641 -64.871 94.641 -64.871 H25.359 Q25.359 -64.871 25.359 -64.871 Q25.359 -64.871 25.359 -64.871 V-55.23 Z"/></g><g id="Regular-M" transform="matrix(1 0 0 1 1394.06 1126)"><path d="M25 14.77 Q20.875 14.77 17.938 11.833 Q15 8.895 15 4.77 V-65.23 Q15 -69.355 17.938 -72.292 Q20.875 -75.23 25 -75.23 H30 V-85.23 H40 V-75.23 H80 V-85.23 H90 V-75.23 H95 Q99.125 -75.23 102.062 -72.292 Q105 -69.355 105 -65.23 V-35.23 H95 V-45.23 H25 V4.77 Q25 4.77 25 4.77 Q25 4.77 25 4.77 H60 V14.77 H25 Z M95 24.77 Q85.875 24.77 79.062 19.083 Q72.25 13.395 70.5 4.77 H78.25 Q79.875 10.27 84.438 13.77 Q89 17.27 95 17.27 Q102.25 17.27 107.375 12.145 Q112.5 7.02 112.5 -0.23 Q112.5 -7.48 107.375 -12.605 Q102.25 -17.73 95 -17.73 Q91.375 -17.73 88.25 -16.417 Q85.125 -15.105 82.75 -12.73 H90 V-5.23 H70 V-25.23 H77.5 V-18.105 Q80.875 -21.355 85.375 -23.292 Q89.875 -25.23 95 -25.23 Q105.375 -25.23 112.688 -17.917 Q120 -10.605 120 -0.23 Q120 10.145 112.688 17.458 Q105.375 24.77 95 24.77 Z M25 -55.23 H95 V-65.23 Q95 -65.23 95 -65.23 Q95 -65.23 95 -65.23 H25 Q25 -65.23 25 -65.23 Q25 -65.23 25 -65.23 V-55.23 Z"/></g><g id="Light-M" transform="matrix(1 0 0 1 1098.18 1126)"><path d="M26.539 12.27 Q22.75 12.27 20.125 9.645 Q17.5 7.02 17.5 3.231 V-63.691 Q17.5 -67.48 20.125 -70.105 Q22.75 -72.73 26.539 -72.73 H33.462 V-83.307 H41.154 V-72.73 H79.038 V-83.307 H86.538 V-72.73 H93.461 Q97.25 -72.73 99.875 -70.105 Q102.5 -67.48 102.5 -63.691 V-34.461 H95 V-43.691 H25 V3.231 Q25 3.808 25.481 4.289 Q25.962 4.77 26.539 4.77 H60.721 V12.27 H26.539 Z M95 24.001 Q86.452 24.001 79.952 18.746 Q73.452 13.491 71.51 5.539 H77.721 Q79.538 11.087 84.197 14.563 Q88.856 18.039 95 18.039 Q102.587 18.039 107.928 12.698 Q113.269 7.357 113.269 -0.23 Q113.269 -7.817 107.928 -13.158 Q102.587 -18.499 95 -18.499 Q90.894 -18.499 87.24 -16.73 Q83.586 -14.961 80.875 -11.961 H89.231 V-5.999 H70.769 V-24.461 H76.731 V-16.278 Q80.202 -19.961 84.942 -22.211 Q89.683 -24.461 95 -24.461 Q105.038 -24.461 112.135 -17.365 Q119.231 -10.268 119.231 -0.23 Q119.231 9.808 112.135 16.905 Q105.038 24.001 95 24.001 Z M25 -51.191 H95 V-63.691 Q95 -64.268 94.519 -64.749 Q94.038 -65.23 93.461 -65.23 H26.539 Q25.962 -65.23 25.481 -64.749 Q25 -64.268 25 -63.691 V-51.191 Z"/></g><g id="Thin-M" transform="matrix(1 0 0 1 802.565 1126)"><path d="M28.077 9.77 Q24.625 9.77 22.312 7.458 Q20 5.145 20 1.693 V-62.153 Q20 -65.605 22.312 -67.917 Q24.625 -70.23 28.077 -70.23 H36.923 V-81.384 H42.308 V-70.23 H78.077 V-81.384 H83.077 V-70.23 H91.923 Q95.375 -70.23 97.688 -67.917 Q100 -65.605 100 -62.153 V-33.691 H95 V-42.153 H25 V1.693 Q25 2.847 25.962 3.809 Q26.923 4.77 28.077 4.77 H61.442 V9.77 H28.077 Z M95 23.232 Q87.029 23.232 80.841 18.409 Q74.654 13.587 72.519 6.309 H77.192 Q79.202 11.905 83.957 15.357 Q88.712 18.809 95 18.809 Q102.923 18.809 108.481 13.251 Q114.038 7.693 114.038 -0.23 Q114.038 -8.153 108.481 -13.711 Q102.923 -19.268 95 -19.268 Q90.413 -19.268 86.231 -17.042 Q82.048 -14.816 79 -11.191 H88.462 V-6.768 H71.538 V-23.691 H75.962 V-14.451 Q79.529 -18.566 84.51 -21.129 Q89.49 -23.691 95 -23.691 Q104.702 -23.691 111.582 -16.812 Q118.462 -9.932 118.462 -0.23 Q118.462 9.472 111.582 16.352 Q104.702 23.232 95 23.232 Z M25 -47.153 H95 V-62.153 Q95 -63.307 94.038 -64.268 Q93.077 -65.23 91.923 -65.23 H28.077 Q26.923 -65.23 25.962 -64.268 Q25 -63.307 25 -62.153 V-47.153 Z"/></g><g id="Ultralight-M" transform="matrix(1 0 0 1 506.415 1126)"><path d="M29 8.27 Q25.75 8.27 23.625 6.145 Q21.5 4.02 21.5 0.77 V-61.23 Q21.5 -64.48 23.625 -66.605 Q25.75 -68.73 29 -68.73 H39 V-80.23 H43 V-68.73 H77.5 V-80.23 H81 V-68.73 H91 Q94.25 -68.73 96.375 -66.605 Q98.5 -64.48 98.5 -61.23 V-33.23 H95 V-41.23 H25 V0.77 Q25 2.27 26.25 3.52 Q27.5 4.77 29 4.77 H61.875 V8.27 H29 Z M95 22.77 Q87.375 22.77 81.375 18.208 Q75.375 13.645 73.125 6.77 H76.875 Q79 12.395 83.812 15.833 Q88.625 19.27 95 19.27 Q103.125 19.27 108.812 13.583 Q114.5 7.895 114.5 -0.23 Q114.5 -8.355 108.812 -14.042 Q103.125 -19.73 95 -19.73 Q90.125 -19.73 85.625 -17.23 Q81.125 -14.73 77.875 -10.73 H88 V-7.23 H72 V-23.23 H75.5 V-13.355 Q79.125 -17.73 84.25 -20.48 Q89.375 -23.23 95 -23.23 Q104.5 -23.23 111.25 -16.48 Q118 -9.73 118 -0.23 Q118 9.27 111.25 16.02 Q104.5 22.77 95 22.77 Z M25 -44.73 H95 V-61.23 Q95 -62.73 93.75 -63.98 Q92.5 -65.23 91 -65.23 H29 Q27.5 -65.23 26.25 -63.98 Q25 -62.73 25 -61.23 V-44.73 Z"/></g><g id="Bold-S" transform="matrix(1 0 0 1 2294.23 696)"><path d="M22.486 5.995 Q17.654 5.995 14.251 2.593 Q10.849 -0.81 10.849 -5.642 V-55.349 Q10.849 -60.251 14.251 -63.619 Q17.654 -66.987 22.486 -66.987 H28.404 V-76.455 H37.773 V-66.987 H56.907 V-76.455 H66.276 V-66.987 H72.194 Q77.026 -66.987 80.429 -63.619 Q83.831 -60.251 83.831 -55.349 V-32.567 H72.194 V-39.964 H22.486 V-5.642 Q22.486 -5.642 22.486 -5.642 Q22.486 -5.642 22.486 -5.642 H45.466 V5.995 H22.486 Z M75.744 16.351 Q68.249 16.351 62.578 11.666 Q56.907 6.982 55.625 0.374 H66.177 Q67.262 3.628 69.728 5.354 Q72.194 7.08 75.744 7.08 Q80.565 7.08 83.974 3.665 Q87.382 0.25 87.382 -4.581 Q87.382 -9.489 84.012 -12.842 Q80.641 -16.195 75.744 -16.195 Q73.574 -16.195 71.7 -15.406 Q69.827 -14.617 68.446 -13.335 H72.785 V-4.064 H52.567 V-24.283 H61.838 V-19.943 Q64.542 -22.596 68.111 -24.031 Q71.68 -25.466 75.744 -25.466 Q84.49 -25.466 90.571 -19.378 Q96.653 -13.291 96.653 -4.584 Q96.653 4.122 90.571 10.237 Q84.49 16.351 75.744 16.351 Z M22.486 -47.065 H72.194 V-55.349 Q72.194 -55.349 72.194 -55.349 Q72.194 -55.349 72.194 -55.349 H22.486 Q22.486 -55.349 22.486 -55.349 Q22.486 -55.349 22.486 -55.349 V-47.065 Z"/></g><g id="Semibold-S" transform="matrix(1 0 0 1 1998.1 696)"><path d="M21.972 4.537 Q17.997 4.537 15.152 1.692 Q12.307 -1.153 12.307 -5.128 V-55.864 Q12.307 -59.908 15.152 -62.719 Q17.997 -65.529 21.972 -65.529 H28.404 V-74.997 H36.787 V-65.529 H57.893 V-74.997 H66.276 V-65.529 H72.708 Q76.683 -65.529 79.528 -62.719 Q82.373 -59.908 82.373 -55.864 V-32.696 H72.708 V-39.964 H21.972 V-5.128 Q21.972 -5.128 21.972 -5.128 Q21.972 -5.128 21.972 -5.128 H47.31 V4.537 H21.972 Z M75.744 14.507 Q68.377 14.507 62.835 9.801 Q57.293 5.095 56.182 -1.727 H64.248 Q65.419 2.556 68.463 4.883 Q71.507 7.209 75.744 7.209 Q81.027 7.209 84.762 3.467 Q88.497 -0.275 88.497 -5.568 Q88.497 -10.904 84.783 -14.6 Q81.07 -18.296 75.744 -18.296 Q73.188 -18.296 70.95 -17.293 Q68.712 -16.29 66.988 -14.622 H72.013 V-7.323 H54.411 V-24.926 H61.709 V-19.686 Q64.439 -22.514 68.04 -24.055 Q71.642 -25.595 75.744 -25.595 Q84.104 -25.595 89.95 -19.743 Q95.795 -13.891 95.795 -5.549 Q95.795 2.793 89.95 8.65 Q84.104 14.507 75.744 14.507 Z M21.972 -47.065 H72.708 V-55.864 Q72.708 -55.864 72.708 -55.864 Q72.708 -55.864 72.708 -55.864 H21.972 Q21.972 -55.864 21.972 -55.864 Q21.972 -55.864 21.972 -55.864 V-47.065 Z"/></g><g id="Medium-S" transform="matrix(1 0 0 1 1701.85 696)"><path d="M21.586 3.444 Q18.254 3.444 15.827 1.017 Q13.4 -1.41 13.4 -4.742 V-56.25 Q13.4 -59.651 15.827 -62.043 Q18.254 -64.436 21.586 -64.436 H28.404 V-73.904 H36.047 V-64.436 H58.633 V-73.904 H66.276 V-64.436 H73.094 Q76.426 -64.436 78.853 -62.043 Q81.28 -59.651 81.28 -56.25 V-32.792 H73.094 V-39.964 H21.586 V-4.742 Q21.586 -4.742 21.586 -4.742 Q21.586 -4.742 21.586 -4.742 H48.693 V3.444 H21.586 Z M75.744 13.124 Q68.474 13.124 63.028 8.402 Q57.582 3.68 56.6 -3.303 H62.801 Q64.036 1.752 67.514 4.529 Q70.993 7.305 75.744 7.305 Q81.374 7.305 85.353 3.319 Q89.333 -0.668 89.333 -6.307 Q89.333 -11.965 85.362 -15.919 Q81.392 -19.872 75.744 -19.872 Q72.899 -19.872 70.387 -18.708 Q67.876 -17.544 65.894 -15.586 H71.434 V-9.768 H55.794 V-25.408 H61.613 V-19.493 Q64.361 -22.453 67.987 -24.072 Q71.614 -25.691 75.744 -25.691 Q83.815 -25.691 89.483 -20.016 Q95.152 -14.341 95.152 -6.273 Q95.152 1.795 89.483 7.46 Q83.815 13.124 75.744 13.124 Z M21.586 -47.065 H73.094 V-56.25 Q73.094 -56.25 73.094 -56.25 Q73.094 -56.25 73.094 -56.25 H21.586 Q21.586 -56.25 21.586 -56.25 Q21.586 -56.25 21.586 -56.25 V-47.065 Z"/></g><g id="Regular-S" transform="matrix(1 0 0 1 1405.73 696)"><path d="M21.303 2.642 Q18.443 2.642 16.322 0.522 Q14.202 -1.599 14.202 -4.459 V-56.533 Q14.202 -59.462 16.322 -61.548 Q18.443 -63.634 21.303 -63.634 H28.404 V-73.102 H35.505 V-63.634 H59.175 V-73.102 H66.276 V-63.634 H73.377 Q76.237 -63.634 78.358 -61.548 Q80.478 -59.462 80.478 -56.533 V-32.863 H73.377 V-39.964 H21.303 V-4.459 Q21.303 -4.459 21.303 -4.459 Q21.303 -4.459 21.303 -4.459 H49.707 V2.642 H21.303 Z M75.744 12.11 Q68.544 12.11 63.169 7.376 Q57.794 2.642 56.907 -4.459 H61.739 Q63.021 1.163 66.818 4.269 Q70.615 7.376 75.744 7.376 Q81.628 7.376 85.787 3.21 Q89.946 -0.956 89.946 -6.85 Q89.946 -12.743 85.787 -16.886 Q81.628 -21.028 75.744 -21.028 Q72.687 -21.028 69.974 -19.746 Q67.262 -18.464 65.093 -16.294 H71.01 V-11.56 H56.808 V-25.762 H61.542 V-19.351 Q64.303 -22.409 67.948 -24.085 Q71.593 -25.762 75.744 -25.762 Q83.602 -25.762 89.141 -20.217 Q94.68 -14.671 94.68 -6.804 Q94.68 1.064 89.141 6.587 Q83.602 12.11 75.744 12.11 Z M21.303 -47.065 H73.377 V-56.533 Q73.377 -56.533 73.377 -56.533 Q73.377 -56.533 73.377 -56.533 H21.303 Q21.303 -56.533 21.303 -56.533 Q21.303 -56.533 21.303 -56.533 V-47.065 Z"/></g><g id="Light-S" transform="matrix(1 0 0 1 1109.75 696)"><path d="M22.517 0.669 Q19.922 0.669 18.048 -1.204 Q16.175 -3.078 16.175 -5.673 V-55.319 Q16.175 -57.983 18.048 -59.822 Q19.922 -61.661 22.517 -61.661 H31.135 V-71.585 H36.415 V-61.661 H58.416 V-71.585 H63.545 V-61.661 H72.163 Q74.758 -61.661 76.632 -59.822 Q78.505 -57.983 78.505 -55.319 V-32.256 H73.377 V-38.75 H21.303 V-5.673 Q21.303 -5.218 21.682 -4.838 Q22.062 -4.459 22.517 -4.459 H50.276 V0.669 H22.517 Z M75.744 11.503 Q69 11.503 63.871 7.11 Q58.743 2.718 57.703 -3.852 H61.322 Q62.756 1.808 66.629 4.895 Q70.502 7.983 75.744 7.983 Q81.893 7.983 86.223 3.646 Q90.553 -0.691 90.553 -6.85 Q90.553 -13.009 86.223 -17.322 Q81.893 -21.635 75.744 -21.635 Q72.307 -21.635 69.178 -19.992 Q66.048 -18.35 63.613 -15.687 H70.403 V-12.167 H57.415 V-25.155 H60.935 V-17.91 Q63.772 -21.309 67.607 -23.232 Q71.441 -25.155 75.744 -25.155 Q83.337 -25.155 88.705 -19.78 Q94.073 -14.406 94.073 -6.804 Q94.073 0.798 88.705 6.151 Q83.337 11.503 75.744 11.503 Z M21.303 -43.878 H73.377 V-55.319 Q73.377 -55.774 72.998 -56.154 Q72.618 -56.533 72.163 -56.533 H22.517 Q22.062 -56.533 21.682 -56.154 Q21.303 -55.774 21.303 -55.319 V-43.878 Z"/></g><g id="Thin-S" transform="matrix(1 0 0 1 814.015 696)"><path d="M23.731 -1.303 Q21.402 -1.303 19.774 -2.93 Q18.147 -4.558 18.147 -6.887 V-54.105 Q18.147 -56.503 19.774 -58.096 Q21.402 -59.689 23.731 -59.689 H33.866 V-70.067 H37.326 V-59.689 H57.658 V-70.067 H60.814 V-59.689 H70.949 Q73.278 -59.689 74.906 -58.096 Q76.533 -56.503 76.533 -54.105 V-31.649 H73.377 V-37.536 H21.303 V-6.887 Q21.303 -5.976 22.062 -5.218 Q22.82 -4.459 23.731 -4.459 H50.845 V-1.303 H23.731 Z M75.744 10.896 Q69.455 10.896 64.573 6.845 Q59.691 2.794 58.5 -3.245 H60.905 Q62.49 2.452 66.439 5.521 Q70.388 8.59 75.744 8.59 Q82.159 8.59 86.659 4.082 Q91.16 -0.425 91.16 -6.85 Q91.16 -13.275 86.659 -17.758 Q82.159 -22.242 75.744 -22.242 Q71.928 -22.242 68.381 -20.239 Q64.835 -18.236 62.134 -15.08 H69.796 V-12.774 H58.022 V-24.548 H60.328 V-16.468 Q63.241 -20.209 67.266 -22.378 Q71.29 -24.548 75.744 -24.548 Q83.071 -24.548 88.269 -19.344 Q93.466 -14.14 93.466 -6.804 Q93.466 0.533 88.269 5.715 Q83.071 10.896 75.744 10.896 Z M21.303 -40.692 H73.377 V-54.105 Q73.377 -55.016 72.618 -55.774 Q71.86 -56.533 70.949 -56.533 H23.731 Q22.82 -56.533 22.062 -55.774 Q21.303 -55.016 21.303 -54.105 V-40.692 Z"/></g><g id="Ultralight-S" transform="matrix(1 0 0 1 517.792 696)"><path d="M24.459 -2.486 Q22.289 -2.486 20.81 -3.966 Q19.331 -5.445 19.331 -7.615 V-53.377 Q19.331 -55.616 20.81 -57.061 Q22.289 -58.505 24.459 -58.505 H35.505 V-69.157 H37.872 V-58.505 H57.203 V-69.157 H59.175 V-58.505 H70.221 Q72.391 -58.505 73.87 -57.061 Q75.35 -55.616 75.35 -53.377 V-31.285 H73.377 V-36.808 H21.303 V-7.615 Q21.303 -6.431 22.289 -5.445 Q23.276 -4.459 24.459 -4.459 H51.186 V-2.486 H24.459 Z M75.744 10.532 Q69.728 10.532 64.994 6.686 Q60.26 2.839 58.978 -2.881 H60.654 Q62.331 2.839 66.325 5.897 Q70.32 8.954 75.744 8.954 Q82.318 8.954 86.921 4.344 Q91.524 -0.266 91.524 -6.85 Q91.524 -13.434 86.921 -18.02 Q82.318 -22.606 75.744 -22.606 Q71.7 -22.606 67.903 -20.387 Q64.106 -18.168 61.246 -14.716 H69.432 V-13.138 H58.386 V-24.184 H59.964 V-15.604 Q62.923 -19.549 67.061 -21.866 Q71.198 -24.184 75.744 -24.184 Q82.912 -24.184 88.007 -19.083 Q93.102 -13.981 93.102 -6.804 Q93.102 0.374 88.007 5.453 Q82.912 10.532 75.744 10.532 Z M21.303 -38.78 H73.377 V-53.377 Q73.377 -54.56 72.391 -55.547 Q71.404 -56.533 70.221 -56.533 H24.459 Q23.276 -56.533 22.289 -55.547 Q21.303 -54.56 21.303 -53.377 V-38.78 Z"/></g></g></svg>