<svg width="207" height="180" viewBox="0 0 207 180" fill="none" xmlns="http://www.w3.org/2000/svg">
<g clip-path="url(#clip0)">
<rect width="206.214" height="180" fill="white"/>
<path d="M205.7 111.242C204.035 127.503 204.508 142.811 190.718 157.5C168.263 181.42 142.566 179.98 106.356 179.928C71.0629 179.877 31.3994 182.663 11.6011 158.061C-5.10909 137.296 -3.27408 114.337 13.9316 93.8605C22.4231 83.755 28.8968 76.3952 43.2297 73.9556C102.233 63.9124 68.8654 21.53 126.13 27.6976C183.394 33.8652 210.35 65.8186 205.7 111.242Z" fill="#EEEEEE"/>
<rect x="12.733" y="31.0825" width="87.3865" height="87.3763" rx="24.5" fill="#7F54B3" stroke="#533582"/>
<ellipse cx="56.2795" cy="74.9174" rx="14.9758" ry="14.9741" fill="#F6F7F7"/>
<path d="M55.97 69.3389C59.2817 69.3839 62.0499 70.5112 64.3448 72.7791C64.8202 73.249 64.9289 73.8137 64.6247 74.2032C64.3144 74.6004 63.6978 74.6447 63.1416 74.2965C62.9826 74.1942 62.8343 74.0762 62.699 73.9443C59.0428 70.4588 53.4352 70.3454 49.6254 73.6865C49.2566 74.01 48.8536 74.2309 48.3484 74.1964C47.9951 74.1724 47.7109 74.0208 47.5518 73.6919C47.3887 73.3536 47.4862 73.0454 47.699 72.7662C47.7949 72.6463 47.9019 72.5357 48.0184 72.4357C50.3062 70.3833 53.0017 69.39 55.97 69.3389Z" fill="#787C82"/>
<path d="M56.2055 73.1892C58.4868 73.2352 60.3736 74.099 62.0516 75.4808C62.2621 75.654 62.4113 75.8892 62.5112 76.1456C62.6381 76.4711 62.659 76.7986 62.414 77.0808C62.163 77.3694 61.827 77.4174 61.4723 77.3379C61.0913 77.2527 60.798 77.0172 60.5127 76.7628C58.2378 74.7266 54.8638 74.5859 52.4593 76.4244C52.2438 76.5892 52.0462 76.7773 51.8418 76.9563C51.5281 77.2307 51.1755 77.4019 50.7468 77.3677C50.1885 77.3234 49.8643 76.8521 50.0176 76.3161C50.0978 76.042 50.2533 75.7959 50.4663 75.6056C52.1091 74.0966 54.0176 73.2214 56.2055 73.1892Z" fill="#787C82"/>
<path d="M56.6312 77.2007C57.216 77.2113 57.7929 77.3381 58.3283 77.5739C58.8636 77.8096 59.3467 78.1495 59.7493 78.5737C60.0366 78.8738 60.2349 79.2121 60.1215 79.6564C59.9781 80.2224 59.2973 80.4877 58.8232 80.0485C57.3479 78.6816 55.2956 78.6715 53.7313 79.9704C53.2948 80.3327 53.0146 80.3625 52.6657 80.083C52.3169 79.8035 52.2323 79.3305 52.4644 78.8988C52.5896 78.666 52.7727 78.4827 52.9757 78.3169C53.8717 77.5874 55.0273 77.1983 56.6312 77.2007Z" fill="#787C82"/>
<path d="M162.316 47.0786L160.673 58.0116L141.895 70.7116C141.895 70.7116 132.022 75.4423 132.643 78.3815C133.197 81.0015 140.816 80.6914 143.213 76.64L165.665 66.4346L173.173 51.5714L162.316 47.0786Z" fill="#FFB8B8"/>
<path d="M162.415 157.302L163.246 168.933L171.277 168.379L169.892 157.302H162.415Z" fill="#FFB8B8"/>
<path d="M164.63 165.333C164.63 165.333 163.523 161.179 162.415 161.456L160.753 164.502C160.753 164.502 153.276 171.425 151.06 171.702C151.06 171.702 143.859 173.917 151.06 177.24H159.368C159.368 177.24 164.907 176.963 166.015 177.24C167.123 177.517 173.493 177.517 173.77 175.856C174.046 174.194 172.939 170.871 172.939 170.871C172.939 170.871 171.917 162.702 170.766 164.294C170.165 165.148 169.503 165.958 168.785 166.717L164.63 165.333Z" fill="#A7AAAD"/>
<path d="M183.185 157.441L184.016 169.072L192.048 168.518L190.663 157.441H183.185Z" fill="#FFB8B8"/>
<path d="M185.401 165.471C185.401 165.471 184.293 161.318 183.186 161.595L181.524 164.641C181.524 164.641 174.046 171.563 171.831 171.84C171.831 171.84 164.63 174.056 171.831 177.379H180.139C180.139 177.379 185.678 176.825 186.786 177.102C187.894 177.379 194.263 177.379 194.54 175.717C194.817 174.056 193.709 171.01 193.709 171.01C193.709 171.01 192.688 162.84 191.537 164.433C190.936 165.287 190.273 166.097 189.555 166.856L185.401 165.471Z" fill="#A7AAAD"/>
<path d="M151.614 85.997L150.229 87.9354V91.8121L159.091 124.765L160.753 131.965C160.753 131.965 160.753 159.656 162.415 159.656C164.076 159.656 171.554 160.487 171.554 158.825C171.554 157.164 171 119.504 171 119.504L178.477 133.626C178.477 133.626 181.801 158.548 182.909 158.825C184.016 159.102 191.771 158.825 192.325 157.164L190.663 141.38C190.663 141.38 190.94 123.657 186.232 119.78C186.232 119.78 185.401 115.073 184.57 113.135C183.739 111.196 182.355 110.088 183.186 108.704C184.016 107.319 182.078 92.0891 182.078 92.0891C182.078 92.0891 182.632 87.3815 181.524 85.997C180.416 84.6124 151.614 85.997 151.614 85.997Z" fill="#2C3338"/>
<path d="M169.338 23.1372C174.08 23.1372 177.923 19.2938 177.923 14.5528C177.923 9.81184 174.08 5.96851 169.338 5.96851C164.597 5.96851 160.753 9.81184 160.753 14.5528C160.753 19.2938 164.597 23.1372 169.338 23.1372Z" fill="#FFB8B8"/>
<path d="M165.046 27.984C165.046 27.984 162.83 32.4146 165.599 31.307L174.185 25.2148C174.185 25.2148 183.601 28.8147 186.924 32.9684L184.155 62.3213L181.939 83.0899C181.939 83.0899 183.324 85.5821 183.047 85.859C182.77 86.1359 182.493 85.5821 182.77 86.4128C183.047 87.2436 183.878 86.4128 183.047 87.2436C182.216 88.0743 181.385 87.2436 182.216 88.0743C183.047 88.9051 182.216 89.182 182.216 89.182C182.216 89.182 181.108 82.536 171.415 87.5205C161.722 92.5049 157.568 93.8895 150.367 87.7974L158.676 56.2292L159.347 44.3229C159.571 40.346 160.279 36.4112 161.454 32.6054C162.09 30.5497 163.196 28.5296 165.046 27.4302V27.984Z" fill="#646970"/>
<path d="M179.862 52.2135L184.016 62.4593L174.323 82.951C174.323 82.951 172.108 85.4432 173.492 88.4892C174.208 90.1169 175.041 91.6902 175.985 93.1968C175.985 93.1968 178.477 92.0891 178.477 87.3816L192.602 67.1668L191.494 50.552L179.862 52.2135Z" fill="#FFB8B8"/>
<path d="M179.308 33.937C179.308 33.937 175.431 37.8138 177.093 43.9059C178.754 49.998 180.139 54.7056 180.139 54.7056C180.139 54.7056 186.786 49.7211 192.325 52.7672C192.325 52.7672 191.494 34.7678 186.786 33.1063C182.078 31.4448 179.308 33.937 179.308 33.937Z" fill="#646970"/>
<path d="M176.396 7.18911C176.396 7.18911 173.773 1.50642 168.745 2.81781C163.718 4.1292 160.876 6.09629 160.657 8.06338C160.439 10.0305 160.767 12.9811 160.767 12.9811C160.767 12.9811 161.313 8.93764 164.811 9.8119C168.308 10.6862 173.773 10.0305 173.773 10.0305L174.647 17.8988C174.647 17.8988 176.138 16.3097 177.231 17.1839C178.324 18.0582 179.893 8.93763 176.396 7.18911Z" fill="#2C3338"/>
<path d="M132.964 68.9451L138.075 67.7614C138.322 67.7043 138.581 67.7328 138.809 67.8422C139.037 67.9516 139.222 68.1355 139.332 68.3635L144.568 79.2202C144.625 79.3386 144.655 79.4681 144.657 79.5995C144.659 79.731 144.632 79.8612 144.578 79.9812C144.524 80.1011 144.444 80.2078 144.345 80.2937C144.245 80.3797 144.128 80.4428 144.002 80.4787L138.807 81.9545C138.529 82.0335 138.232 82.0086 137.97 81.8845C137.709 81.7604 137.502 81.5455 137.388 81.2799L134.047 73.5205L133.945 73.5769L133.309 72.1068L133.415 72.0528L132.482 69.8869C132.442 69.7941 132.423 69.6937 132.427 69.5927C132.43 69.4918 132.456 69.3928 132.502 69.3028C132.547 69.2129 132.613 69.1342 132.693 69.0724C132.772 69.0106 132.865 68.9671 132.964 68.9451Z" fill="#2C3338"/>
<path d="M137.46 68.1644L138.056 68.0262C138.228 67.9865 138.407 68.0067 138.566 68.0832C138.724 68.1598 138.851 68.2882 138.927 68.4471L144.037 79.2344C144.067 79.2965 144.083 79.3642 144.083 79.4329C144.084 79.5016 144.07 79.5697 144.042 79.6325C144.015 79.6954 143.973 79.7514 143.922 79.7969C143.87 79.8424 143.81 79.8762 143.744 79.896L138.586 81.4522C138.44 81.4961 138.283 81.4849 138.146 81.4207C138.008 81.3565 137.899 81.2439 137.839 81.1042L133.003 69.851C132.972 69.7782 132.957 69.6994 132.959 69.6202C132.962 69.5409 132.982 69.4632 133.018 69.3925C133.053 69.3218 133.104 69.2598 133.167 69.2109C133.229 69.1619 133.301 69.1273 133.379 69.1094L133.945 68.9784C133.999 68.9657 134.057 68.9714 134.108 68.9947C134.159 69.0179 134.201 69.0574 134.228 69.107C134.251 69.1508 134.288 69.1856 134.334 69.2061C134.379 69.2267 134.43 69.2317 134.478 69.2205L137.165 68.5983C137.26 68.5763 137.343 68.5194 137.397 68.439C137.452 68.3586 137.474 68.2605 137.46 68.1644V68.1644Z" fill="#7F54B3"/>
<path d="M132.229 65.0882C132.229 65.0932 132.23 65.0978 132.23 65.1024C132.248 65.4185 132.007 65.6894 131.691 65.7084C128.366 65.9011 128.332 68.879 128.333 69.0057C128.333 69.3224 128.077 69.5794 127.76 69.5796C127.443 69.5798 127.185 69.3255 127.186 69.007C127.184 67.5592 128.109 64.7673 131.625 64.563C131.936 64.5452 132.203 64.779 132.229 65.0882Z" fill="#3C2861"/>
<path d="M132.548 62.4854C132.549 62.4904 132.549 62.495 132.55 62.4996C132.568 62.8157 132.327 63.0866 132.011 63.1056C125.816 63.4651 125.729 69.069 125.728 69.3074C125.727 69.6234 125.47 69.88 125.154 69.8797C124.838 69.8794 124.58 69.6259 124.581 69.3078C124.581 69.2386 124.654 62.3843 131.943 61.9606C132.255 61.9429 132.523 62.1767 132.548 62.4854Z" fill="#3C2861"/>
<path d="M132.771 59.9835C132.772 59.9885 132.772 59.9931 132.772 59.9977C132.791 60.3138 132.55 60.5846 132.233 60.6036C123.313 61.1215 123.223 69.17 123.223 69.5123C123.224 69.829 122.967 70.0861 122.65 70.0862C122.333 70.0864 122.078 69.8327 122.076 69.5136C122.076 69.4192 122.178 60.0385 132.166 59.4583C132.478 59.4405 132.746 59.6747 132.771 59.9835Z" fill="#3C2861"/>
<path d="M174.739 19.6758L174.185 25.2141L176.4 27.1525L162.276 33.7984C165.756 27.8548 166.786 22.4428 165.046 18.5681L174.739 19.6758Z" fill="#FFB8B8"/>
</g>
<defs>
<clipPath id="clip0">
<rect width="206.214" height="180" fill="white"/>
</clipPath>
</defs>
</svg>
