<svg width="24" height="24" viewBox="0 0 24 24" fill="none" xmlns="http://www.w3.org/2000/svg">
<g clip-path="url(#clip0_3531_102424)">
<path d="M11.8645 15.8373L12.2235 16.5201L11.8645 15.8373L8.5311 17.5898L9.16773 13.878C9.22496 13.5443 9.11433 13.2038 8.87191 12.9675L6.1751 10.3388L9.902 9.79724C10.237 9.74856 10.5266 9.53815 10.6765 9.23457L12.3432 5.85743L14.0099 9.23457C14.1597 9.53815 14.4493 9.74856 14.7843 9.79724L18.5112 10.3388L15.8144 12.9675L16.3529 13.5199L15.8144 12.9675C15.572 13.2038 15.4614 13.5443 15.5186 13.878L16.1552 17.5898L12.8218 15.8373C12.5222 15.6798 12.1642 15.6798 11.8645 15.8373Z" stroke="#7F54B3" stroke-width="1.54286"/>
</g>
<defs>
<clipPath id="clip0_3531_102424">
<rect width="24" height="24" fill="white"/>
</clipPath>
</defs>
</svg>
