<svg width="1904" height="1269" viewBox="0 0 1904 1269" fill="none" xmlns="http://www.w3.org/2000/svg">
<rect width="1903.5" height="1269" rx="79.3125" fill="#15195A"/>
<path d="M811.957 466.464L659.843 825.112H560.6L485.744 538.895C481.199 521.265 477.247 514.807 463.426 507.38C440.86 495.282 403.596 483.932 370.809 476.887L373.036 466.464H532.787C553.15 466.464 571.456 479.859 576.079 503.032L615.613 710.564L713.319 466.458H811.957V466.464ZM1200.81 708.017C1201.21 613.358 1068.36 608.144 1069.27 565.859C1069.55 552.99 1081.95 539.307 1109.09 535.815C1122.55 534.075 1159.61 532.747 1201.65 551.865L1218.14 475.811C1195.55 467.708 1166.48 459.91 1130.32 459.91C1037.52 459.91 972.216 508.659 971.666 578.465C971.067 630.096 1018.28 658.908 1053.85 676.065C1090.44 693.635 1102.72 704.925 1102.58 720.641C1102.32 744.698 1073.4 755.319 1046.36 755.738C999.175 756.455 971.793 743.12 949.965 733.091L932.949 811.663C954.885 821.608 995.375 830.285 1037.35 830.722C1135.99 830.722 1200.51 782.576 1200.81 708.017ZM1445.85 825.112H1532.69L1456.89 466.464H1376.75C1358.73 466.464 1343.52 476.833 1336.8 492.776L1195.91 825.112H1294.5L1314.07 771.543H1434.52L1445.85 825.112ZM1341.1 698.036L1390.51 563.377L1418.96 698.036H1341.1ZM946.099 466.464L868.465 825.112H774.583L852.247 466.464H946.099Z" fill="white"/>
</svg>
