<svg width="1985" height="1270" viewBox="0 0 1985 1270" fill="none" xmlns="http://www.w3.org/2000/svg">
<rect width="1985" height="1270" rx="64" fill="white"/>
<path fill-rule="evenodd" clip-rule="evenodd" d="M64 0C28.6538 0 0 28.6538 0 64V1206C0 1241.35 28.6538 1270 64 1270H1921C1956.35 1270 1985 1241.35 1985 1206V64C1985 28.6538 1956.35 0 1921 0H64ZM65 23C41.804 23 23 41.8041 23 65V1205C23 1228.2 41.804 1247 65 1247H1274C1612 1247 1886 972.998 1886 635C1886 297.002 1612 23 1274 23H65Z" fill="url(#paint0_linear_3854_7127)"/>
<path fill-rule="evenodd" clip-rule="evenodd" d="M743.252 492.014C699.214 496.571 661.122 519.095 637.432 554.586C609.095 597.036 606.095 652.503 629.668 698.098C645.882 729.46 674.812 754.223 708.416 765.504C725.084 771.099 733.907 772.401 755.5 772.452C768.47 772.483 777.609 772.039 781.5 771.187C792.651 768.747 804.59 765.088 813.316 761.435L822 757.8V726.853V695.906L814.802 702.101C796.145 718.16 779.377 725 758.673 725C729.417 725 702.679 712.311 686.455 690.728C666.225 663.817 662.275 622.682 676.918 591.433C681.874 580.858 685.774 575.177 693.939 566.638C711.203 548.584 731.823 539.824 756.878 539.899C779.422 539.966 797.805 547.596 815.657 564.296L822 570.229V539.129V508.029L816.184 505.093C807.554 500.737 790.772 495.142 781.586 493.56C770.649 491.676 753.284 490.976 743.252 492.014ZM493.539 494.112C479.442 496.166 462.791 503.369 452.275 511.963C434.102 526.814 424.981 546.539 425.017 570.91C425.074 608.755 441.009 625.971 494 645.436C533.442 659.924 542.438 667.824 542.475 688C542.488 695.266 542.074 697.403 539.621 702.722C536.096 710.367 528.278 718.056 520.253 721.772C512.788 725.228 497.257 726.06 486.613 723.574C472.112 720.187 458.352 710.315 449.435 696.903C445.286 690.661 444.666 690.121 442.996 691.29C441.98 692.002 434.321 699.247 425.977 707.391L410.804 722.198L414.652 727.821C420.033 735.683 435.271 750.883 442.881 755.979C457.664 765.879 473.056 771.119 492.83 772.984C513.349 774.919 533.231 771.598 549.721 763.481C571.961 752.533 586.512 735.22 593.581 711.297C595.562 704.593 596.307 699.406 596.714 689.5C598.561 644.55 581.517 624.168 524 602.547C488.958 589.374 479.064 581.553 479.032 567C479 552.541 491.121 541.031 509.741 537.838C525.214 535.184 540.572 540.274 553.661 552.393L560.591 558.809L574.365 540.816C587.258 523.974 588.023 522.73 586.32 521.375C567.364 506.3 548.336 497.66 527.004 494.445C516.647 492.883 502.912 492.747 493.539 494.112ZM1779.34 495.936C1763.42 499.837 1757.98 519.029 1769.51 530.564C1782.76 543.809 1804.2 534.783 1804.2 515.963C1804.2 511.348 1803.61 509.013 1801.57 505.535C1797.27 498.198 1787.44 493.952 1779.34 495.936ZM92.667 497.667C92.3 498.033 92 558.816 92 632.739V767.146L142.75 766.753C198.433 766.323 202.47 765.968 222 759.791C266.577 745.69 301.194 706.76 311.623 659C314.528 645.695 314.291 616.033 311.168 602.081C297.501 541.032 249.742 502.68 181.52 497.969C166.413 496.927 93.655 496.679 92.667 497.667ZM338.667 497.667C338.3 498.033 338 558.783 338 632.667V767H364.5H391V632V497H365.167C350.958 497 339.033 497.3 338.667 497.667ZM1110 497.766C1110 498.205 1135.58 560.424 1166.86 636.032L1223.71 773.5L1238.11 773.767L1252.5 774.033L1310.5 636.383C1342.4 560.675 1368.65 498.335 1368.84 497.851C1369.03 497.351 1356.73 497.084 1340.43 497.235L1311.68 497.5L1275.62 587.25C1255.78 636.612 1239.31 677 1239.01 677C1238.71 677 1222.43 636.612 1202.83 587.25L1167.2 497.5L1138.6 497.235C1122.87 497.089 1110 497.328 1110 497.766ZM1393 632V767H1467.5H1542V744V721H1493.5H1445V685V649H1491.5H1538V626V603H1491.5H1445V573V543H1493.5H1542V520V497H1467.5H1393V632ZM1577 631.885V767H1603H1629V712.94V658.879L1632.67 659.19C1636.34 659.499 1636.44 659.639 1672.42 713.22L1708.5 766.939L1740.81 766.97C1766.4 766.994 1772.96 766.74 1772.35 765.75C1771.93 765.063 1752.98 739.586 1730.24 709.136C1707.5 678.686 1689.03 653.675 1689.2 653.556C1689.36 653.437 1692.65 652.508 1696.5 651.492C1700.35 650.476 1707.35 647.716 1712.07 645.358C1738.04 632.362 1751.52 605.928 1749.69 571.578C1747.6 532.139 1723.99 507.369 1681 499.49C1673.15 498.051 1663.31 497.664 1624.25 497.259L1577 496.769V631.885ZM1791.03 501.25C1797.36 504.44 1800.2 509.674 1799.73 517.263C1799.35 523.407 1797.53 526.765 1792.61 530.438C1788.74 533.329 1779.26 533.329 1775.39 530.438C1767.22 524.345 1765.2 513.702 1770.74 506.077C1773 502.969 1780.44 499 1784 499C1785.42 499 1788.58 500.013 1791.03 501.25ZM1775.75 504.571C1775.34 504.99 1775 510.433 1775 516.667V528H1777.94C1780.68 528 1780.91 527.71 1781.19 523.82L1781.5 519.64L1784.39 523.82C1786.81 527.326 1787.81 528 1790.64 528C1792.49 528 1794 527.838 1794 527.641C1794 527.443 1792.49 525.373 1790.65 523.041L1787.29 518.801L1789.65 516.446C1792.47 513.616 1792.66 510.042 1790.15 506.935C1788.7 505.141 1787.03 504.559 1782.4 504.229C1779.15 503.998 1776.16 504.151 1775.75 504.571ZM1785.84 511.38C1786.04 512.414 1785.59 513.645 1784.85 514.115C1782.27 515.751 1781 515.032 1781 511.93C1781 509.323 1781.34 508.909 1783.24 509.18C1784.48 509.357 1785.64 510.341 1785.84 511.38ZM1667 542.505C1679.9 546.535 1687.82 553.008 1692.68 563.5C1695.17 568.891 1695.45 570.565 1695.4 580C1695.34 592.835 1693.12 599.428 1686.3 607.011C1677.39 616.917 1664.85 621.068 1643 621.335L1629.5 621.5L1629.24 580.62L1628.98 539.74L1645.24 540.264C1656.53 540.628 1663.18 541.312 1667 542.505ZM178.541 544.096C202.091 546.466 217.441 552.864 231.494 566.166C251.033 584.661 260.93 609.193 259.667 636C258.967 650.854 256.372 660.647 249.343 674.964C244.279 685.279 242.751 687.395 234.107 696.069C215.647 714.594 196.851 720.981 160.75 720.994L145 721V632V543H156.326C162.556 543 172.552 543.493 178.541 544.096Z" fill="black"/>
<g filter="url(#filter0_iii_3854_7127)">
<circle cx="982" cy="632" r="144" fill="url(#paint1_linear_3854_7127)"/>
</g>
<defs>
<filter id="filter0_iii_3854_7127" x="838" y="488" width="308" height="312" filterUnits="userSpaceOnUse" color-interpolation-filters="sRGB">
<feFlood flood-opacity="0" result="BackgroundImageFix"/>
<feBlend mode="normal" in="SourceGraphic" in2="BackgroundImageFix" result="shape"/>
<feColorMatrix in="SourceAlpha" type="matrix" values="0 0 0 0 0 0 0 0 0 0 0 0 0 0 0 0 0 0 127 0" result="hardAlpha"/>
<feOffset/>
<feGaussianBlur stdDeviation="10"/>
<feComposite in2="hardAlpha" operator="arithmetic" k2="-1" k3="1"/>
<feColorMatrix type="matrix" values="0 0 0 0 0 0 0 0 0 0 0 0 0 0 0 0 0 0 0.25 0"/>
<feBlend mode="overlay" in2="shape" result="effect1_innerShadow_3854_7127"/>
<feColorMatrix in="SourceAlpha" type="matrix" values="0 0 0 0 0 0 0 0 0 0 0 0 0 0 0 0 0 0 127 0" result="hardAlpha"/>
<feOffset dx="20" dy="24"/>
<feGaussianBlur stdDeviation="12"/>
<feComposite in2="hardAlpha" operator="arithmetic" k2="-1" k3="1"/>
<feColorMatrix type="matrix" values="0 0 0 0 0 0 0 0 0 0 0 0 0 0 0 0 0 0 0.3 0"/>
<feBlend mode="normal" in2="effect1_innerShadow_3854_7127" result="effect2_innerShadow_3854_7127"/>
<feColorMatrix in="SourceAlpha" type="matrix" values="0 0 0 0 0 0 0 0 0 0 0 0 0 0 0 0 0 0 127 0" result="hardAlpha"/>
<feOffset dx="4" dy="8"/>
<feGaussianBlur stdDeviation="4"/>
<feComposite in2="hardAlpha" operator="arithmetic" k2="-1" k3="1"/>
<feColorMatrix type="matrix" values="0 0 0 0 0 0 0 0 0 0 0 0 0 0 0 0 0 0 0.25 0"/>
<feBlend mode="normal" in2="effect2_innerShadow_3854_7127" result="effect3_innerShadow_3854_7127"/>
</filter>
<linearGradient id="paint0_linear_3854_7127" x1="992.5" y1="0" x2="992.5" y2="1270" gradientUnits="userSpaceOnUse">
<stop stop-color="#E96518"/>
<stop offset="1" stop-color="#F89E20"/>
</linearGradient>
<linearGradient id="paint1_linear_3854_7127" x1="934" y1="584" x2="1066.5" y2="716.5" gradientUnits="userSpaceOnUse">
<stop stop-color="#FF3700"/>
<stop offset="1" stop-color="#FF9200"/>
</linearGradient>
</defs>
</svg>
