<svg width="216" height="144" viewBox="0 0 216 144" fill="none" xmlns="http://www.w3.org/2000/svg">
<path d="M39.9645 39.4777C26.8081 39.4777 17.1484 49.7222 17.1484 62.2886C17.1484 69.3849 20.1016 75.6811 26.0513 80.1685C30.8311 83.7732 33.5016 85.1689 33.5016 91.3956V132.521L39.8689 137.526V137.6L39.9167 137.561L39.9645 137.6V137.526L46.3318 132.521V124.26L41.7695 119.698L45.8099 115.659L41.7695 111.619L45.8099 107.58L41.7695 103.54L46.3318 98.9789V91.3913C46.3318 85.1646 49.0023 83.7688 53.7821 80.1641C59.7275 75.6768 62.685 69.3805 62.685 62.2842C62.685 49.7178 53.121 39.4734 39.9689 39.4734L39.9645 39.4777ZM39.9167 60.7797C36.1633 60.7797 33.1232 57.7403 33.1232 53.9878C33.1232 50.2353 36.1633 47.1958 39.9167 47.1958C43.6701 47.1958 46.7102 50.2353 46.7102 53.9878C46.7102 57.7403 43.6701 60.7797 39.9167 60.7797Z" fill="#271B3D"/>
<path d="M35.5547 48.7806L35.5588 48.7765V48.7725L35.5547 48.7806Z" fill="#BEA0F2"/>
<path d="M58.8543 14.166C44.9672 14.166 33.707 25.4236 33.707 39.3075C33.707 39.6379 33.7157 39.9684 33.7288 40.2945C35.2945 39.8728 36.9342 39.6032 38.6391 39.5119C38.6391 39.4423 38.6347 39.3771 38.6347 39.3075C38.6347 28.163 47.7029 19.0969 58.85 19.0969C69.9971 19.0969 79.0652 28.163 79.0652 39.3075C79.0652 50.452 69.9971 59.5181 58.85 59.5181C50.5038 59.5181 43.3275 54.4393 40.2439 47.2082C40.1352 47.2039 40.0265 47.1908 39.9134 47.1908C38.2563 47.1908 36.7384 47.7865 35.5598 48.7736C39.3001 57.9657 48.3161 64.449 58.8543 64.449C72.7414 64.449 84.0016 53.1914 84.0016 39.3075C84.0016 25.4236 72.7414 14.166 58.8543 14.166Z" fill="#BEA0F2"/>
<path d="M198.52 83.3196H84V132.323H198.52V83.3196Z" fill="#BEA0F2"/>
<path d="M179.13 113.08C177.083 115.1 171.018 120.055 167.596 118.755C167.188 118.599 166.909 118.324 166.726 117.898C165.855 115.878 167.01 111.024 170.157 103.463L168.535 102.437C168.228 102.776 162.388 109.238 157.816 115.068L160.977 103.618L159.204 102.854C159.176 102.895 156.556 107.2 153.189 111.294C148.98 116.419 145.407 119.02 143.144 118.631C142.511 118.521 142.008 118.177 141.641 117.605C141.307 117.078 141.101 116.387 141.023 115.576C146.213 114.12 150.725 110.955 151.811 107.411C152.25 105.972 152.09 104.58 151.362 103.6C150.862 102.922 149.868 102.116 147.972 102.116C143.858 102.116 140.794 106.664 139.575 111.175C139.3 112.187 139.135 113.158 139.071 114.06C137.825 114.321 136.57 114.459 135.352 114.477C135.727 113.721 136.062 112.938 136.346 112.16C137.697 108.468 138.192 104.008 135.53 102.551C133.913 101.667 131.092 102.034 127.802 105.29L128.398 103.069L126.863 102.048C125.178 103.353 123.176 104.379 121.128 105.066C121.357 104.232 121.55 103.399 121.692 102.583C122.709 96.7763 121.206 92.595 117.574 91.102C115.004 90.0487 111.939 90.6303 109.58 92.6271C106.937 94.8666 105.755 98.2968 106.497 101.58C107.134 104.397 108.888 106.394 111.573 107.356C113.561 108.07 115.851 108.148 118.155 107.791C115.805 113.593 111.77 118.434 108.6 118.567C107.427 118.613 106.47 118.132 105.723 117.129C103.827 114.582 103.772 109.531 105.59 104.25L103.749 103.614C101.696 109.572 101.852 115.196 104.161 118.287C105.302 119.817 106.859 120.582 108.682 120.504C113.213 120.312 118 113.992 120.414 107.296C122.347 106.769 124.22 105.977 125.856 105.038L120.226 126.027L122.109 126.531L124.797 116.515C124.972 117.385 125.256 118.191 125.686 118.855C126.277 119.762 127.088 120.325 128.091 120.527C128.316 120.573 128.535 120.596 128.755 120.596C130.762 120.596 132.718 118.8 134.261 116.391C135.86 116.46 137.505 116.323 139.117 116.011C139.245 117.023 139.539 117.907 140.001 118.635C140.665 119.675 141.637 120.33 142.814 120.536C145.892 121.067 149.896 118.37 154.71 112.503C155.732 111.262 156.675 110.012 157.504 108.867L154.559 119.542L156.3 120.353C158.892 116.588 163.29 111.367 166.4 107.786C164.536 113.131 164.073 116.639 164.944 118.649C165.338 119.57 166.002 120.211 166.913 120.559C167.532 120.793 168.187 120.898 168.856 120.898C173.817 120.898 179.767 115.187 180.509 114.45L179.14 113.062L179.13 113.08ZM141.453 111.679C142.443 108.01 144.903 104.063 147.967 104.063C148.567 104.063 149.369 104.182 149.79 104.754C150.148 105.235 150.203 105.995 149.946 106.838C149.36 108.757 147.166 110.809 144.078 112.334C143.112 112.81 142.104 113.213 141.078 113.534C141.156 112.943 141.279 112.325 141.453 111.679ZM119.772 102.249C119.571 103.389 119.282 104.539 118.925 105.67C116.451 106.197 114.06 106.188 112.232 105.533C110.18 104.795 108.888 103.325 108.398 101.159C107.702 98.0816 109.2 95.5032 110.84 94.1201C112.077 93.0759 113.501 92.5263 114.889 92.5263C115.553 92.5263 116.213 92.65 116.836 92.9064C120.551 94.4269 120.272 99.4143 119.772 102.249ZM128.471 118.635C127.986 118.535 127.615 118.274 127.308 117.807C126.002 115.81 126.579 111.157 126.955 109.284C129.717 105.533 132.983 103.376 134.596 104.264C135.833 104.942 135.801 107.983 134.518 111.496C132.947 115.791 130.23 119.002 128.471 118.64V118.635Z" fill="#271B3D"/>
<path d="M86.5508 85.458L141.2 68" stroke="#261B3C" stroke-width="0.99" stroke-miterlimit="10"/>
<path d="M195.39 85.458L141.199 68" stroke="#261B3C" stroke-width="0.99" stroke-miterlimit="10"/>
<path d="M121.612 56.2129C134.1 56.2129 144.223 46.0917 144.223 33.6065C144.223 21.1213 134.1 11 121.612 11C109.124 11 99 21.1213 99 33.6065C99 46.0917 109.124 56.2129 121.612 56.2129Z" fill="#BEA0F2"/>
<path fill-rule="evenodd" clip-rule="evenodd" d="M125.097 34.0557C127.373 32.6677 130.079 30.3219 130.079 26.4433C130.079 21.3215 126.165 18.1194 121.613 18.1194C117.06 18.1194 113.146 21.3215 113.146 26.4433C113.146 30.318 115.848 32.6677 118.128 34.0557L112.008 48.1975H131.221L125.101 34.0557H125.097Z" fill="#271B3D"/>
<g clip-path="url(#clip0_404_77592)">
<path d="M171.998 21.8666C178.688 21.8666 184.133 27.3078 184.133 34.002C184.133 40.6962 178.692 46.1374 171.998 46.1374C165.304 46.1374 159.863 40.6962 159.863 34.002C159.863 27.3078 165.304 21.8666 171.998 21.8666ZM171.998 11C159.298 11 149 21.2978 149 33.998C149 46.6982 159.298 56.996 171.998 56.996C184.698 56.996 194.996 46.6982 194.996 33.998C194.996 21.2978 184.702 11 171.998 11Z" fill="#271B3D"/>
<path d="M160.617 14.015L166.09 23.4059C167.84 22.4274 169.853 21.8626 171.997 21.8626V11C167.856 11 163.974 12.1018 160.617 14.015Z" fill="#BEA0F2"/>
</g>
<defs>
<clipPath id="clip0_404_77592">
<rect width="46" height="46" fill="white" transform="translate(149 11)"/>
</clipPath>
</defs>
</svg>
