<svg width="160" height="105" viewBox="0 0 160 105" fill="none" xmlns="http://www.w3.org/2000/svg">
<rect x="28.2094" y="1" width="103" height="103" rx="24" stroke="black" stroke-opacity="0.87" stroke-width="2"/>
<circle cx="79.5348" cy="52.6745" r="16.7907" stroke="black" stroke-opacity="0.87" stroke-width="2"/>
<path d="M79.1673 46.0466C83.1014 46.1001 86.39 47.4395 89.1163 50.134C89.6811 50.6923 89.8101 51.3632 89.4487 51.8259C89.0801 52.2978 88.3477 52.3505 87.6868 51.9368C87.498 51.8153 87.3219 51.6751 87.161 51.5184C82.8176 47.3772 76.156 47.2425 71.6301 51.2121C71.192 51.5964 70.7132 51.8589 70.1131 51.8179C69.6934 51.7893 69.3557 51.6092 69.1668 51.2185C68.973 50.8165 69.0888 50.4503 69.3417 50.1187C69.4556 49.9762 69.5827 49.8447 69.7211 49.726C72.4389 47.2875 75.6411 46.1073 79.1673 46.0466Z" fill="black" fill-opacity="0.87"/>
<path d="M79.4468 50.6211C82.1569 50.6758 84.3984 51.702 86.3918 53.3437C86.6418 53.5495 86.8191 53.8289 86.9377 54.1336C87.0884 54.5203 87.1134 54.9094 86.8223 55.2447C86.5241 55.5876 86.1249 55.6446 85.7036 55.5502C85.251 55.4489 84.9025 55.1691 84.5636 54.8668C81.8611 52.4477 77.8529 52.2805 74.9965 54.4648C74.7404 54.6606 74.5057 54.8841 74.2629 55.0967C73.8902 55.4227 73.4714 55.6262 72.962 55.5856C72.2988 55.5329 71.9137 54.9729 72.0958 54.3362C72.1911 54.0105 72.3758 53.7181 72.6288 53.492C74.5804 51.6992 76.8476 50.6593 79.4468 50.6211Z" fill="black" fill-opacity="0.87"/>
<path d="M79.9524 55.3875C80.6472 55.4001 81.3325 55.5508 81.9685 55.8308C82.6045 56.1109 83.1783 56.5147 83.6567 57.0187C83.998 57.3753 84.2335 57.7772 84.0989 58.305C83.9284 58.9776 83.1196 59.2927 82.5565 58.7709C80.8038 57.1469 78.3658 57.1349 76.5075 58.6781C75.9889 59.1086 75.6561 59.144 75.2416 58.8119C74.8272 58.4799 74.7267 57.9179 75.0024 57.405C75.1512 57.1284 75.3687 56.9106 75.6098 56.7136C76.6743 55.8469 78.0471 55.3847 79.9524 55.3875Z" fill="black" fill-opacity="0.87"/>
<path d="M0 52.6932C0.0534634 48.759 1.39286 45.4704 4.08734 42.7442C4.64569 42.1794 5.31659 42.0504 5.77927 42.4118C6.2512 42.7804 6.30386 43.5128 5.89022 44.1736C5.76866 44.3624 5.62847 44.5386 5.47176 44.6994C1.33055 49.0428 1.19589 55.7044 5.16545 60.2303C5.54974 60.6685 5.81223 61.1473 5.77123 61.7474C5.74269 62.1671 5.5626 62.5047 5.17188 62.6937C4.7699 62.8874 4.40369 62.7717 4.07206 62.5188C3.9296 62.4049 3.79811 62.2778 3.67933 62.1393C1.24091 59.4216 0.060699 56.2194 0 52.6932Z" fill="#7F54B3"/>
<path d="M4.57458 52.4134C4.62925 49.7033 5.65551 47.4618 7.2972 45.4684C7.50301 45.2184 7.78239 45.0411 8.08709 44.9225C8.47379 44.7718 8.86291 44.7469 9.19816 45.0379C9.54105 45.3362 9.59813 45.7353 9.50367 46.1566C9.40237 46.6092 9.12259 46.9578 8.8203 47.2966C6.40118 49.9991 6.23396 54.0073 8.41832 56.8638C8.61409 57.1198 8.83759 57.3546 9.05023 57.5974C9.37624 57.97 9.57964 58.3889 9.53904 58.8982C9.48638 59.5614 8.92642 59.9465 8.28969 59.7644C7.96403 59.6691 7.6716 59.4845 7.44553 59.2314C5.6527 57.2798 4.61277 55.0126 4.57458 52.4134Z" fill="#7F54B3"/>
<path d="M9.34071 51.9079C9.3533 51.2131 9.50401 50.5278 9.78407 49.8919C10.0641 49.2559 10.4679 48.682 10.9719 48.2037C11.3285 47.8624 11.7305 47.6268 12.2583 47.7615C12.9308 47.9319 13.2459 48.7407 12.7242 49.3039C11.1002 51.0565 11.0881 53.4945 12.6313 55.3529C13.0618 55.8714 13.0972 56.2043 12.7652 56.6187C12.4331 57.0332 11.8712 57.1337 11.3582 56.8579C11.0817 56.7092 10.8638 56.4917 10.6668 56.2505C9.80017 55.1861 9.3379 53.8133 9.34071 51.9079Z" fill="#7F54B3"/>
<path d="M159.419 52.3068C159.365 56.241 158.026 59.5296 155.331 62.2558C154.773 62.8206 154.102 62.9496 153.639 62.5882C153.167 62.2196 153.115 61.4872 153.528 60.8264C153.65 60.6376 153.79 60.4614 153.947 60.3006C158.088 55.9572 158.223 49.2956 154.253 44.7697C153.869 44.3315 153.606 43.8527 153.647 43.2526C153.676 42.8329 153.856 42.4953 154.247 42.3063C154.649 42.1126 155.015 42.2283 155.347 42.4812C155.489 42.5951 155.62 42.7222 155.739 42.8607C158.178 45.5784 159.358 48.7806 159.419 52.3068Z" fill="#7F54B3"/>
<path d="M154.844 52.5863C154.789 55.2965 153.763 57.5379 152.121 59.5313C151.916 59.7814 151.636 59.9586 151.331 60.0772C150.945 60.228 150.556 60.2529 150.22 59.9619C149.878 59.6636 149.82 59.2644 149.915 58.8431C150.016 58.3905 150.296 58.042 150.598 57.7031C153.017 55.0006 153.185 50.9925 151 48.136C150.804 47.8799 150.581 47.6452 150.368 47.4024C150.042 47.0297 149.839 46.6109 149.88 46.1016C149.932 45.4383 150.492 45.0532 151.129 45.2353C151.455 45.3306 151.747 45.5153 151.973 45.7683C153.766 47.7199 154.806 49.9871 154.844 52.5863Z" fill="#7F54B3"/>
<path d="M150.078 53.0918C150.065 53.7866 149.915 54.4719 149.635 55.1079C149.354 55.7439 148.951 56.3177 148.447 56.7961C148.09 57.1374 147.688 57.3729 147.16 57.2383C146.488 57.0678 146.173 56.259 146.694 55.6959C148.318 53.9432 148.33 51.5052 146.787 49.6469C146.357 49.1283 146.321 48.7955 146.653 48.381C146.985 47.9666 147.547 47.8661 148.06 48.1419C148.337 48.2906 148.555 48.5081 148.752 48.7492C149.618 49.8137 150.081 51.1865 150.078 53.0918Z" fill="#7F54B3"/>
</svg>
