<svg width="24" height="24" viewBox="0 0 24 24" fill="none" xmlns="http://www.w3.org/2000/svg">
<g clip-path="url(#clip0_3531_102436)">
<path d="M10.6623 9.62699C10.3482 9.84685 10.25 10.0787 10.25 10.25C10.25 10.4213 10.3482 10.6531 10.6623 10.873C10.9741 11.0912 11.4447 11.25 12 11.25C12.8254 11.25 13.6048 11.483 14.1979 11.8981C14.7886 12.3116 15.25 12.9548 15.25 13.75C15.25 14.5452 14.7886 15.1884 14.1979 15.6019C13.7886 15.8884 13.2906 16.0881 12.75 16.1844V16.5C12.75 16.9142 12.4142 17.25 12 17.25C11.5858 17.25 11.25 16.9142 11.25 16.5V16.1844C10.7094 16.0881 10.2114 15.8884 9.80214 15.6019C9.21141 15.1884 8.75 14.5452 8.75 13.75C8.75 13.3358 9.08579 13 9.5 13C9.91421 13 10.25 13.3358 10.25 13.75C10.25 13.9213 10.3482 14.1531 10.6623 14.373C10.9741 14.5912 11.4447 14.75 12 14.75C12.5553 14.75 13.0259 14.5912 13.3377 14.373C13.6518 14.1531 13.75 13.9213 13.75 13.75C13.75 13.5787 13.6518 13.3469 13.3377 13.127C13.0259 12.9088 12.5553 12.75 12 12.75C11.1746 12.75 10.3952 12.517 9.80214 12.1019C9.21141 11.6884 8.75 11.0452 8.75 10.25C8.75 9.45484 9.21141 8.81165 9.80214 8.39814C10.2114 8.11165 10.7094 7.91191 11.25 7.81563V7.5C11.25 7.08579 11.5858 6.75 12 6.75C12.4142 6.75 12.75 7.08579 12.75 7.5V7.81563C13.2906 7.91191 13.7886 8.11165 14.1979 8.39814C14.7886 8.81165 15.25 9.45484 15.25 10.25C15.25 10.6642 14.9142 11 14.5 11C14.0858 11 13.75 10.6642 13.75 10.25C13.75 10.0787 13.6518 9.84685 13.3377 9.62699C13.0259 9.40878 12.5553 9.25 12 9.25C11.4447 9.25 10.9741 9.40878 10.6623 9.62699Z" fill="#7F54B3"/>
<path fill-rule="evenodd" clip-rule="evenodd" d="M3.25 12C3.25 7.16751 7.16751 3.25 12 3.25C16.8325 3.25 20.75 7.16751 20.75 12C20.75 16.8325 16.8325 20.75 12 20.75C7.16751 20.75 3.25 16.8325 3.25 12ZM12 4.75C7.99594 4.75 4.75 7.99594 4.75 12C4.75 16.0041 7.99594 19.25 12 19.25C16.0041 19.25 19.25 16.0041 19.25 12C19.25 7.99594 16.0041 4.75 12 4.75Z" fill="#7F54B3"/>
</g>
<defs>
<clipPath id="clip0_3531_102436">
<rect width="24" height="24" fill="white"/>
</clipPath>
</defs>
</svg>
