<svg width="24" height="24" viewBox="0 0 24 24" fill="none" xmlns="http://www.w3.org/2000/svg">
<g clip-path="url(#clip0_3531_102442)">
<path fill-rule="evenodd" clip-rule="evenodd" d="M5.14283 13.6285L7.05894 14.0339C6.83533 15.8567 7.94383 17.6322 9.76086 18.1877L10.2119 16.7123C9.16675 16.3927 8.51228 15.4004 8.57824 14.3552L13.0589 15.3031C12.6369 16.4452 11.3911 17.0728 10.2119 16.7123L9.76086 18.1877C11.798 18.8105 13.9544 17.664 14.5773 15.6268L14.5503 15.6186L18.5143 16.4571H20.5714V6.68567H18.5143L5.14283 9.51424H4.62854C4.34451 9.51424 4.11426 9.74449 4.11426 10.0285V13.1142C4.11426 13.3983 4.34451 13.6285 4.62854 13.6285H5.14283ZM18.6757 8.22853L5.65712 10.9824V12.1603L18.6757 14.9142H19.0285V8.22853H18.6757Z" fill="#7F54B3"/>
</g>
<defs>
<clipPath id="clip0_3531_102442">
<rect width="24" height="24" fill="white"/>
</clipPath>
</defs>
</svg>
