<svg width="216" height="144" viewBox="0 0 216 144" fill="none" xmlns="http://www.w3.org/2000/svg">
<path d="M116.895 9H99.4518V39.2351C102.997 39.6758 106.172 42.8445 106.172 46.1628C106.172 49.4811 103.957 52.8452 100.025 52.8452C96.9374 52.8452 95.1337 51.7557 92.8437 49.7389L92 50.4958C93.5336 52.945 97.2325 55.9764 101.293 55.9764C107.789 55.9764 113.05 51.5021 113.05 45.0026C113.05 41.7841 112.182 37.8004 109.318 34.5445L113.37 20.872L208.956 49.3564V9H116.891H116.895Z" fill="#271B3D"/>
<path d="M156.344 33.6796L166.302 36.6486V25.2964L192.335 9H177.12L156.344 21.9531V33.6796Z" fill="#BEA0F2"/>
<path d="M139.342 28.6147L148.656 31.3883V20.4686L167.229 9H153.277L139.342 17.6909V28.6147Z" fill="#BEA0F2"/>
<path d="M126.899 92.2826H121.437C122.406 81.6415 120.271 61.718 103.99 61.718C87.7087 61.718 85.5732 81.6415 86.5427 92.2826H81.0934L72 136.256H135.992L126.899 92.2826ZM103.99 68.571C113.631 68.571 113.614 84.585 110.839 92.2826H97.1447C94.3699 84.585 94.349 68.571 103.994 68.571H103.99Z" fill="#BEA0F2"/>
<path d="M105.94 54.8859L76.3535 137.774" stroke="#261B3C" stroke-width="0.99" stroke-miterlimit="10"/>
<path d="M102.051 54.8859L131.638 137.774" stroke="#261B3C" stroke-width="0.99" stroke-miterlimit="10"/>
<path fill-rule="evenodd" clip-rule="evenodd" d="M107.817 115.254C110.316 113.728 113.287 111.148 113.287 106.892C113.287 101.26 108.991 97.7433 103.989 97.7433C98.9869 97.7433 94.6909 101.26 94.6909 106.892C94.6909 111.152 97.6621 113.732 100.161 115.254L93.4414 130.796H114.541L107.821 115.254H107.817Z" fill="#271B3D"/>
<path d="M209.167 75H148V136.2H209.167V75Z" fill="#271B3D"/>
<path d="M187.377 108.797C187.377 96.816 191.27 78.9924 203.352 78.9924L190.777 113.902H154.498C154.498 109.924 159.776 100.207 187.377 108.793V108.797Z" fill="#BEA0F2"/>
<path d="M158.795 133.402L167.819 99.1017H182.02L190.317 133.402H191.861L182.909 96.4485H166.948L157.244 133.402H158.795Z" fill="white"/>
<path d="M166.947 96.4485L167.818 99.1017H182.02L182.908 96.4485H166.947Z" fill="#BEA0F2"/>
<path d="M61 136H25L25 115H61V136Z" fill="#BEA0F2"/>
<path d="M20 136H8L8 115H20L20 136Z" fill="#BEA0F2"/>
<path d="M49 110H8L8 89H49V110Z" fill="#BEA0F2"/>
<path d="M28 84H8L8 63H28L28 84Z" fill="#BEA0F2"/>
<path d="M28.6312 51.2848C40.0256 51.2848 49.2625 42.0429 49.2625 30.6424C49.2625 19.2419 40.0256 10 28.6312 10C17.2369 10 8 19.2419 8 30.6424C8 42.0429 17.2369 51.2848 28.6312 51.2848Z" fill="#BEA0F2"/>
<path d="M29.0381 19.1006H28.2285V42.1838H29.0381V19.1006Z" fill="white"/>
<path d="M40.166 31.0493V30.2393H17.0953V31.0493H40.166Z" fill="white"/>
</svg>
