<svg width="28" height="21" viewBox="0 0 28 21" fill="none" xmlns="http://www.w3.org/2000/svg">
<path d="M2.89648 18.1152C2.06152 18.1152 1.4292 17.8979 0.999512 17.4633C0.569824 17.0336 0.35498 16.4037 0.35498 15.5737V3.3349C0.35498 2.49994 0.569824 1.86761 0.999512 1.43793C1.4292 1.00824 2.06152 0.793396 2.89648 0.793396H16.6001C17.4351 0.793396 18.0674 1.01068 18.4971 1.44525C18.9268 1.87494 19.1416 2.50482 19.1416 3.3349V16.4672L17.8452 17.207V3.35687C17.8452 2.93695 17.7354 2.62201 17.5156 2.41205C17.3008 2.1972 16.9883 2.08978 16.5781 2.08978H2.91846C2.50342 2.08978 2.18848 2.1972 1.97363 2.41205C1.75879 2.62201 1.65137 2.93695 1.65137 3.35687V15.5444C1.65137 15.9643 1.75879 16.2792 1.97363 16.4892C2.18848 16.704 2.50342 16.8115 2.91846 16.8115H4.80811V18.1152H2.89648ZM18.4092 7.31927V6.01556H21.7783C22.2178 6.01556 22.5962 6.07904 22.9136 6.20599C23.2358 6.32806 23.5288 6.53558 23.7925 6.82855L27.0151 10.454C27.1763 10.6347 27.3032 10.8129 27.396 10.9887C27.4888 11.1596 27.5522 11.35 27.5864 11.56C27.6255 11.7651 27.645 12.0092 27.645 12.2924V15.5737C27.645 16.4037 27.4302 17.0336 27.0005 17.4633C26.5708 17.8979 25.9409 18.1152 25.1108 18.1152H23.6826V16.8115H25.0815C25.5015 16.8115 25.8164 16.704 26.0264 16.4892C26.2412 16.2792 26.3486 15.9643 26.3486 15.5444V12.2631C26.3486 12.0825 26.3145 11.9018 26.2461 11.7211C26.1826 11.5356 26.085 11.3696 25.9531 11.2231L22.9282 7.82465C22.7476 7.62445 22.5596 7.49017 22.3643 7.42181C22.1689 7.35345 21.9419 7.31927 21.6831 7.31927H18.4092ZM20.8701 12.3071C20.6455 12.3071 20.4648 12.2411 20.3281 12.1093C20.1963 11.9775 20.1304 11.7968 20.1304 11.5673V8.27875H21.4414C21.5928 8.27875 21.7295 8.31049 21.8516 8.37396C21.9785 8.43744 22.0933 8.52533 22.1958 8.63763L25.0083 11.8017C25.0815 11.8798 25.1377 11.9555 25.1768 12.0287C25.2207 12.102 25.2427 12.1948 25.2427 12.3071H20.8701ZM7.25439 20.7812C6.81494 20.7812 6.40234 20.6982 6.0166 20.5322C5.63574 20.371 5.29883 20.144 5.00586 19.851C4.71289 19.558 4.4834 19.2187 4.31738 18.8329C4.15625 18.4521 4.07568 18.0419 4.07568 17.6025C4.07568 17.1679 4.15625 16.7578 4.31738 16.372C4.4834 15.9911 4.71289 15.6567 5.00586 15.3686C5.29883 15.0756 5.63574 14.8461 6.0166 14.6801C6.40234 14.5141 6.81494 14.4311 7.25439 14.4311C7.68896 14.4311 8.09668 14.5141 8.47754 14.6801C8.86328 14.8461 9.20264 15.0756 9.49561 15.3686C9.78857 15.6567 10.0156 15.9911 10.1768 16.372C10.3428 16.7578 10.4258 17.1679 10.4258 17.6025C10.4258 18.0419 10.3428 18.4521 10.1768 18.8329C10.0156 19.2187 9.78857 19.558 9.49561 19.851C9.20264 20.144 8.86328 20.371 8.47754 20.5322C8.09668 20.6982 7.68896 20.7812 7.25439 20.7812ZM7.25439 19.6752C7.63037 19.6752 7.97461 19.58 8.28711 19.3896C8.59961 19.204 8.84863 18.955 9.03418 18.6425C9.21973 18.33 9.3125 17.9833 9.3125 17.6025C9.3125 17.2265 9.21973 16.8798 9.03418 16.5624C8.84863 16.2499 8.59961 16.0009 8.28711 15.8154C7.97461 15.6298 7.63037 15.537 7.25439 15.537C6.87354 15.537 6.52686 15.6298 6.21436 15.8154C5.90186 16.0009 5.65039 16.2499 5.45996 16.5624C5.27441 16.8798 5.18164 17.2265 5.18164 17.6025C5.18164 17.9833 5.27441 18.33 5.45996 18.6425C5.65039 18.955 5.90186 19.204 6.21436 19.3896C6.52686 19.58 6.87354 19.6752 7.25439 19.6752ZM20.9507 20.7812C20.5112 20.7812 20.0986 20.6982 19.7129 20.5322C19.332 20.371 18.9951 20.144 18.7021 19.851C18.4141 19.558 18.187 19.2187 18.021 18.8329C17.855 18.4521 17.772 18.0419 17.772 17.6025C17.772 17.1679 17.855 16.7578 18.021 16.372C18.187 15.9911 18.4141 15.6567 18.7021 15.3686C18.9951 15.0756 19.332 14.8461 19.7129 14.6801C20.0986 14.5141 20.5112 14.4311 20.9507 14.4311C21.3901 14.4311 21.8003 14.5141 22.1812 14.6801C22.5669 14.8461 22.9038 15.0756 23.1919 15.3686C23.4849 15.6567 23.7119 15.9911 23.873 16.372C24.0391 16.7578 24.1221 17.1679 24.1221 17.6025C24.1221 18.0419 24.0391 18.4521 23.873 18.8329C23.7119 19.2187 23.4849 19.558 23.1919 19.851C22.9038 20.144 22.5669 20.371 22.1812 20.5322C21.8003 20.6982 21.3901 20.7812 20.9507 20.7812ZM20.9507 19.6752C21.3315 19.6752 21.6782 19.58 21.9907 19.3896C22.3032 19.204 22.5498 18.955 22.7305 18.6425C22.916 18.33 23.0088 17.9833 23.0088 17.6025C23.0088 17.2265 22.916 16.8798 22.7305 16.5624C22.5449 16.2499 22.2959 16.0009 21.9834 15.8154C21.6709 15.6298 21.3267 15.537 20.9507 15.537C20.5698 15.537 20.2231 15.6298 19.9106 15.8154C19.5981 16.0009 19.3491 16.2499 19.1636 16.5624C18.978 16.8798 18.8853 17.2265 18.8853 17.6025C18.8853 17.9833 18.978 18.33 19.1636 18.6425C19.3491 18.955 19.5981 19.204 19.9106 19.3896C20.2231 19.58 20.5698 19.6752 20.9507 19.6752ZM9.81787 18.1152V16.8115H18.4604V18.1152H9.81787Z" fill="black"/>
</svg>
