<svg width="24" height="24" viewBox="0 0 24 24" fill="none" xmlns="http://www.w3.org/2000/svg">
<g clip-path="url(#clip0_3531_102448)">
<path fill-rule="evenodd" clip-rule="evenodd" d="M15.9426 11.3142C17.3628 11.3142 18.5141 10.163 18.5141 8.74282C18.5141 7.32265 17.3628 6.17139 15.9426 6.17139C14.5225 6.17139 13.3712 7.32265 13.3712 8.74282C13.3712 10.163 14.5225 11.3142 15.9426 11.3142ZM15.9426 9.77139C16.5107 9.77139 16.9712 9.31088 16.9712 8.74282C16.9712 8.17475 16.5107 7.71424 15.9426 7.71424C15.3746 7.71424 14.9141 8.17475 14.9141 8.74282C14.9141 9.31088 15.3746 9.77139 15.9426 9.77139Z" fill="#7F54B3"/>
<path d="M13.6284 17.4857V15.4285C13.6284 13.8664 12.362 12.6 10.7998 12.6H6.68551C5.12333 12.6 3.85693 13.8664 3.85693 15.4285V17.4857H5.39979V15.4285C5.39979 14.7184 5.97542 14.1428 6.68551 14.1428H10.7998C11.5099 14.1428 12.0855 14.7185 12.0855 15.4285V17.4857H13.6284Z" fill="#7F54B3"/>
<path d="M20.8284 15.4285V17.4857H19.2855V15.4285C19.2855 14.7184 18.7099 14.1428 17.9998 14.1428H15.4284V12.6H17.9998C19.562 12.6 20.8284 13.8664 20.8284 15.4285Z" fill="#7F54B3"/>
<path fill-rule="evenodd" clip-rule="evenodd" d="M11.3141 8.74282C11.3141 10.163 10.1628 11.3142 8.74265 11.3142C7.32249 11.3142 6.17122 10.163 6.17122 8.74282C6.17122 7.32265 7.32249 6.17139 8.74265 6.17139C10.1628 6.17139 11.3141 7.32265 11.3141 8.74282ZM9.77122 8.74282C9.77122 9.31088 9.31071 9.77139 8.74265 9.77139C8.17458 9.77139 7.71408 9.31088 7.71408 8.74282C7.71408 8.17475 8.17458 7.71424 8.74265 7.71424C9.31071 7.71424 9.77122 8.17475 9.77122 8.74282Z" fill="#7F54B3"/>
</g>
<defs>
<clipPath id="clip0_3531_102448">
<rect width="24" height="24" fill="white"/>
</clipPath>
</defs>
</svg>
