<svg width="20" height="19" viewBox="0 0 20 19" fill="none" xmlns="http://www.w3.org/2000/svg">
<path d="M4.77051 18.1625C3.87207 18.1625 3.18604 17.9306 2.7124 17.4667C2.24365 17.0078 2.00928 16.329 2.00928 15.4306V5.31586H3.30566V15.4819C3.30566 16.4536 3.79395 16.9394 4.77051 16.9394H15.2222C15.686 16.9394 16.0449 16.8149 16.2988 16.5659C16.5527 16.3168 16.6797 15.9555 16.6797 15.4819V5.31586H17.9834V15.4306C17.9834 16.329 17.7466 17.0078 17.2729 17.4667C16.8042 17.9306 16.1182 18.1625 15.2148 18.1625H4.77051ZM6.83594 9.68842C6.65039 9.68842 6.49902 9.62982 6.38184 9.51263C6.26953 9.39545 6.21338 9.2392 6.21338 9.04388V8.75824C6.21338 8.56293 6.26953 8.40912 6.38184 8.29681C6.49902 8.17963 6.65039 8.12103 6.83594 8.12103H13.1567C13.3472 8.12103 13.4985 8.17963 13.6108 8.29681C13.728 8.40912 13.7866 8.56293 13.7866 8.75824V9.04388C13.7866 9.2392 13.728 9.39545 13.6108 9.51263C13.4985 9.62982 13.3472 9.68842 13.1567 9.68842H6.83594ZM2.31689 5.90912C1.7749 5.90912 1.35742 5.75043 1.06445 5.43304C0.776367 5.11566 0.632324 4.68842 0.632324 4.15131V2.70844C0.632324 2.35199 0.700684 2.04193 0.837402 1.77826C0.974121 1.51459 1.16699 1.31195 1.41602 1.17035C1.66992 1.02386 1.97021 0.950623 2.31689 0.950623H17.6758C18.2178 0.950623 18.6328 1.10931 18.9209 1.4267C19.2139 1.74408 19.3604 2.17133 19.3604 2.70844V4.15131C19.3604 4.68842 19.2139 5.11566 18.9209 5.43304C18.6328 5.75043 18.2178 5.90912 17.6758 5.90912H2.31689ZM2.61719 4.68597H17.3828C17.6221 4.68597 17.7954 4.62982 17.9028 4.51752C18.0103 4.40033 18.064 4.21967 18.064 3.97552V2.87689C18.064 2.63763 18.0103 2.46185 17.9028 2.34955C17.7954 2.23236 17.6221 2.17377 17.3828 2.17377H2.61719C2.37793 2.17377 2.20215 2.23236 2.08984 2.34955C1.98242 2.46185 1.92871 2.63763 1.92871 2.87689V3.97552C1.92871 4.21967 1.98242 4.40033 2.08984 4.51752C2.20215 4.62982 2.37793 4.68597 2.61719 4.68597Z" fill="black"/>
</svg>
