<svg width="216" height="144" viewBox="0 0 216 144" fill="none" xmlns="http://www.w3.org/2000/svg">
<path d="M60.7353 10.0409C28.1192 10.0409 9.79816 35.2144 16.303 54.1554C23.3955 74.845 45.311 84.2811 45.311 111.479H76.1689C76.1689 84.2811 98.0798 74.845 105.177 54.1554C111.677 35.2144 93.3561 10.0409 60.7353 10.0409Z" fill="#BEA0F2"/>
<path d="M75.0717 67.7955C67.5294 67.7955 63.0949 72.7705 63.0949 80.4626V81.4172C62.5623 81.4172 62.0115 81.4172 61.4881 81.4218H60.4874C59.7254 81.4218 59.2709 81.4218 58.3803 81.4218V80.4672C58.3803 72.7705 53.9458 67.7955 46.4035 67.7955C39.6874 67.7955 35.8359 70.3289 35.8359 74.7348C35.8359 78.0439 39.0585 80.279 45.4165 81.3805C49.3047 82.0551 53.0736 82.2204 56.7966 82.2571V111.474H58.3803V82.2617C59.2709 82.2663 59.7208 82.2663 60.4874 82.2617C61.2494 82.2617 62.2043 82.2617 63.0949 82.2617V111.469H64.6786V82.2525C68.4016 82.2158 72.1704 82.0505 76.0587 81.3759C82.4166 80.2744 85.6392 78.0393 85.6392 74.7303C85.6392 70.3197 81.7877 67.7909 75.0717 67.7909V67.7955ZM56.8012 81.408C53.1149 81.3667 49.3965 81.2061 45.5772 80.5452C39.6966 79.5263 38.1037 77.1076 38.1037 74.588C38.1037 70.0811 42.7907 68.6445 46.4127 68.6445C53.1562 68.6445 56.8057 73.2846 56.8057 80.4626V81.4126L56.8012 81.408ZM75.9026 80.5452C72.0786 81.2061 68.3649 81.3713 64.6786 81.408V80.458C64.6786 73.28 68.3281 68.64 75.0717 68.64C78.6891 68.64 83.3761 70.0765 83.3761 74.5834C83.3761 77.103 81.7786 79.5217 75.898 80.5406L75.9026 80.5452Z" fill="white"/>
<path d="M72.2422 38.5645C84.4486 26.1452 95.5394 21.698 107.998 19.7245" stroke="#271B3D" stroke-miterlimit="10"/>
<path d="M102.103 43.1078L72.6953 19.4442" stroke="#271B3D" stroke-miterlimit="10"/>
<path d="M84.4492 50.5753C88.4476 38.0459 89.9074 21.8999 87.3321 10.036" stroke="#271B3D" stroke-miterlimit="10"/>
<path d="M38.2695 111.478V116.068H45.3069C45.3069 116.128 45.3069 117.72 45.3069 117.775C45.4125 125.297 52.4407 132.044 60.7359 132.044C69.0311 132.044 76.0455 125.311 76.1648 117.794C76.1648 117.729 76.1648 116.132 76.1648 116.068H83.2022V111.478H38.2695Z" fill="#271B3D"/>
<path d="M144.999 92.8223L204.863 92.8223V75.3223H144.999V92.8223Z" fill="#BEA0F2"/>
<path d="M187.36 75.3223H145V78.8223H187.36V75.3223Z" fill="#271B3D"/>
<path d="M204.69 82.3574H145.176V85.8574H204.69V82.3574Z" fill="#271B3D"/>
<path d="M178.608 89.3223H145V92.8223H178.608V89.3223Z" fill="#271B3D"/>
<path d="M204.69 12H145.176V71.5H204.69V12Z" fill="#271B3D"/>
<path d="M187.259 51.1475C187.259 47.0315 184.742 43.0905 179.802 40.4025H195.181L180.832 16.7355H169.037L154.688 40.4025H170.067C165.127 43.0905 162.61 47.0315 162.61 51.1475C162.61 55.806 166.261 60.5065 171.075 63.023C164.416 61.679 163.373 66.7575 163.373 66.7575H186.503C186.503 66.7575 185.46 61.679 178.801 63.023C183.615 60.5065 187.266 55.806 187.266 51.1475H187.259Z" fill="white"/>
<path d="M174.932 16.7393H169.037L154.684 40.4028H170.063H179.802H195.181L180.828 16.7393H174.932Z" fill="#BEA0F2"/>
<path d="M190.406 32.5312H159.459L154.684 40.4028L190.406 32.5312Z" fill="white"/>
<path d="M185.629 24.6562H164.232L159.457 32.5312L185.629 24.6562Z" fill="white"/>
<path d="M180.828 16.7393H169.037L164.234 24.6563L180.828 16.7393Z" fill="white"/>
<path d="M192.809 117.4C192.809 121.995 189.11 125.73 184.521 125.8H163.421C158.772 125.803 155 122.04 155 117.4C155 112.76 158.769 109 163.421 109H184.532C189.113 109 192.805 112.812 192.805 117.4H192.809Z" fill="#BEA0F2"/>
<path d="M184.299 123.35C187.586 123.35 190.25 120.686 190.25 117.4C190.25 114.114 187.586 111.45 184.299 111.45C181.012 111.45 178.348 114.114 178.348 117.4C178.348 120.686 181.012 123.35 184.299 123.35Z" fill="#271B3D"/>
<path d="M134.73 105.63C131.055 100.474 128.944 98 124.795 98C120.244 98 118.245 103.152 120.979 106.372C123.987 109.914 134.783 113.61 134.783 113.61C134.783 113.61 111.03 110.45 104.876 110.45C101.48 110.45 98 112.585 98 116.638C98 120.691 101.48 122.825 104.876 122.825C111.03 122.825 134.783 119.665 134.783 119.665C134.783 119.665 123.983 123.361 120.979 126.903C118.249 130.123 120.244 135.275 124.795 135.275C128.947 135.275 131.058 132.804 134.73 127.645C135.977 125.898 142.306 116.634 142.306 116.634C142.306 116.634 135.977 107.373 134.73 105.623V105.63Z" fill="#271B3D"/>
</svg>
