<svg width="24" height="24" viewBox="0 0 24 24" fill="none" xmlns="http://www.w3.org/2000/svg">
<g clip-path="url(#clip0_3531_102454)">
<path fill-rule="evenodd" clip-rule="evenodd" d="M7.23679 9.746C7.18237 9.74379 7.12769 9.74266 7.07274 9.74266C4.82343 9.74266 3 11.6231 3 13.9427C3 16.2623 4.82343 18.1427 7.07274 18.1427L7.09698 18.1426H16.944L16.9633 18.1427C18.8912 18.1427 20.4542 16.5309 20.4542 14.5427C20.4542 12.7589 19.1963 11.2781 17.5453 10.9924L17.5455 10.9427C17.5455 8.29175 15.2011 6.1427 12.3091 6.1427C9.86785 6.1427 7.81684 7.67405 7.23679 9.746C7.23679 9.746 7.23678 9.746 7.23679 9.746ZM15.8936 12.3673L15.909 10.9743L15.9091 10.9427C15.9091 9.3266 14.4343 7.77907 12.3091 7.77907C10.534 7.77907 9.1771 8.88506 8.81258 10.1871L8.46356 11.4339L7.17 11.381C7.13784 11.3797 7.10541 11.379 7.07274 11.379C5.77427 11.379 4.63637 12.479 4.63637 13.9427C4.63637 15.4048 5.77188 16.504 7.06864 16.5063L7.09207 16.5062H16.9532L16.9633 16.5063C17.9404 16.5063 18.8178 15.6749 18.8178 14.5427C18.8178 13.5322 18.1105 12.751 17.2662 12.6049L15.8936 12.3673Z" fill="#7F54B3"/>
</g>
<defs>
<clipPath id="clip0_3531_102454">
<rect width="24" height="24" fill="white"/>
</clipPath>
</defs>
</svg>
