<svg width="1737" height="1269" viewBox="0 0 1737 1269" fill="none" xmlns="http://www.w3.org/2000/svg">
<rect x="9.27632" y="9.27632" width="1717.97" height="1250.45" rx="109.461" fill="white"/>
<g clip-path="url(#clip0_3854_7134)">
<path d="M201.089 909.774C201.089 933.716 218.199 936.483 233.415 936.483C300.55 936.483 322.564 885.869 322.564 839.567C322.564 781.505 285.3 739.566 225.333 739.566C212.59 739.566 206.717 740.456 201.089 740.795V909.774ZM170.662 764.064C170.662 736.13 156.042 737.97 142.09 737.656V729.629C154.185 730.188 166.61 730.188 178.742 730.188C191.782 730.188 209.504 729.629 232.505 729.629C312.941 729.629 356.763 783.327 356.763 838.342C356.763 869.097 338.763 946.44 228.769 946.44C212.959 946.44 198.303 945.843 183.722 945.843C169.733 945.843 156.042 946.163 142.09 946.44V938.338C160.686 936.483 169.733 935.867 170.662 914.753V764.064Z" fill="#231F20"/>
<path d="M400.92 756.646C392.802 756.646 385.67 749.175 385.67 741.116C385.67 733.336 393.12 726.166 400.92 726.166C408.965 726.166 416.154 732.705 416.154 741.116C416.154 749.495 409.3 756.646 400.92 756.646ZM367.65 938.348H373.559C382.253 938.348 388.456 938.348 388.456 928.058V843.922C388.456 830.252 383.829 828.378 372.293 822.207V817.231C386.915 812.849 404.302 806.996 405.566 806.012C407.74 804.802 409.58 804.488 411.157 804.488C412.699 804.488 413.313 806.328 413.313 808.818V928.058C413.313 938.348 420.186 938.348 428.841 938.348H434.136V946.445C423.567 946.445 412.699 945.835 401.517 945.835C390.332 945.835 379.15 946.149 367.65 946.445V938.348Z" fill="#231F20"/>
<path d="M463.656 845.767C463.656 834.31 460.238 831.187 445.656 825.318V819.376C458.994 815.031 471.719 810.96 486.655 804.478C487.583 804.478 488.494 805.094 488.494 807.541V827.789C506.233 815.031 521.469 804.478 542.294 804.478C568.69 804.478 578.014 823.721 578.014 847.961V928.067C578.014 938.357 584.871 938.357 593.546 938.357H599.137V946.435C588.233 946.435 577.367 945.843 566.218 945.843C555.017 945.843 543.833 946.157 532.651 946.435V938.357H538.242C546.956 938.357 553.123 938.357 553.123 928.067V847.663C553.123 829.926 542.294 821.25 524.551 821.25C514.614 821.25 498.784 829.313 488.494 836.163V928.067C488.494 938.357 495.386 938.357 504.079 938.357H509.67V946.435C498.784 946.435 487.88 945.843 476.677 945.843C465.532 945.843 454.331 946.157 443.147 946.435V938.357H448.777C457.452 938.357 463.656 938.357 463.656 928.067V845.767Z" fill="#231F20"/>
<path d="M677.783 850.748C685.509 850.748 686.418 846.722 686.418 843.004C686.418 827.126 676.799 814.401 659.411 814.401C640.479 814.401 627.423 828.369 623.689 850.748H677.783ZM622.776 860.723C622.126 863.509 622.126 868.156 622.776 878.72C624.598 908.254 643.582 932.473 668.418 932.473C685.509 932.473 698.923 923.13 710.383 911.652L714.734 915.997C700.43 934.945 682.745 951.082 657.273 951.082C607.841 951.082 597.92 903.259 597.92 883.385C597.92 822.499 638.92 804.482 660.635 804.482C685.824 804.482 712.893 820.309 713.17 853.219C713.17 855.135 713.17 856.97 712.893 858.849L710.049 860.723H622.776Z" fill="#231F20"/>
<path d="M720.313 938.349H728.727C737.419 938.349 743.591 938.349 743.591 928.059V840.802C743.591 831.203 732.126 829.325 727.465 826.815V822.211C750.126 812.551 762.594 804.494 765.395 804.494C767.236 804.494 768.164 805.382 768.164 808.522V836.456H768.832C776.559 824.362 789.62 804.494 808.57 804.494C816.334 804.494 826.255 809.733 826.255 820.931C826.255 829.325 820.402 836.809 811.673 836.809C802.012 836.809 802.012 829.326 791.164 829.326C785.886 829.326 768.479 836.456 768.479 855.141V928.059C768.479 938.349 774.685 938.349 783.381 938.349H800.783V946.451C783.696 946.154 770.673 945.835 757.316 945.835C744.556 945.835 731.514 946.154 720.313 946.451V938.349Z" fill="#231F20"/>
<path d="M839.916 903.263C843.984 923.752 856.414 941.169 879.099 941.169C897.409 941.169 904.213 929.974 904.213 919.104C904.213 882.462 836.536 894.216 836.536 844.238C836.536 826.815 850.524 804.488 884.706 804.488C894.627 804.488 907.984 807.273 920.099 813.48L922.288 845.165H915.155C912.052 825.61 901.143 814.388 881.269 814.388C868.825 814.388 857.045 821.558 857.045 834.911C857.045 871.282 929.106 860.078 929.106 908.851C929.106 929.338 912.645 951.086 875.695 951.086C863.213 951.086 848.631 946.761 837.76 940.561L834.346 904.823L839.916 903.263Z" fill="#231F20"/>
<path d="M1209.66 785.823H1201.89C1196 749.495 1170.2 734.896 1135.44 734.896C1099.67 734.896 1047.76 758.798 1047.76 833.315C1047.76 896.114 1092.59 941.169 1140.39 941.169C1171.15 941.169 1196.64 920.055 1202.86 887.42L1209.98 889.258L1202.86 934.634C1189.8 942.732 1154.65 951.086 1134.15 951.086C1061.45 951.086 1015.51 904.192 1015.51 834.299C1015.51 770.612 1072.34 724.937 1133.25 724.937C1158.43 724.937 1182.63 733.019 1206.56 741.393L1209.66 785.823Z" fill="#231F20"/>
<path d="M1220.84 938.349H1226.77C1235.48 938.349 1241.7 938.349 1241.7 928.059V755.126C1241.7 734.897 1237.04 734.266 1225.22 730.868V725.888C1237.63 721.839 1250.69 716.29 1257.23 712.514C1260.63 710.659 1263.14 709.078 1264.05 709.078C1265.94 709.078 1266.54 710.955 1266.54 713.46V928.059C1266.54 938.349 1273.39 938.349 1282.09 938.349H1287.36V946.451C1276.85 946.451 1265.94 945.835 1254.72 945.835C1243.58 945.835 1232.39 946.154 1220.84 946.451V938.349Z" fill="#231F20"/>
<path d="M1420.37 929.334C1420.37 934.963 1423.75 935.242 1429.06 935.242C1432.76 935.242 1437.46 934.963 1441.51 934.963V941.498C1428.09 942.726 1402.65 949.247 1396.7 951.1L1395.18 950.173V925.046C1376.57 940.255 1362.23 951.1 1340.14 951.1C1323.38 951.1 1306.01 940.255 1306.01 914.18V834.63C1306.01 826.528 1304.75 818.746 1287.4 817.225V811.319C1298.6 810.984 1323.38 809.162 1327.45 809.162C1330.91 809.162 1330.91 811.319 1330.91 818.154V898.278C1330.91 907.586 1330.91 934.31 1357.91 934.31C1368.45 934.31 1382.43 926.212 1395.48 915.423V831.785C1395.48 825.601 1380.58 822.201 1369.41 819.066V813.474C1397.37 811.597 1414.8 809.162 1417.88 809.162C1420.37 809.162 1420.37 811.319 1420.37 814.754V929.334Z" fill="#231F20"/>
<path d="M1482.17 911.332C1482.17 923.143 1493.36 943.019 1514.2 943.019C1547.47 943.019 1561.44 910.381 1561.44 882.725C1561.44 849.203 1535.95 821.25 1511.72 821.25C1500.17 821.25 1490.57 828.716 1482.17 835.886V911.332ZM1482.17 826.82C1494.59 816.289 1511.41 804.497 1528.49 804.497C1564.52 804.497 1586.27 835.886 1586.27 869.71C1586.27 910.381 1556.46 951.097 1511.99 951.097C1488.99 951.097 1476.91 943.649 1468.81 940.249L1459.5 947.364L1453 943.964C1455.73 925.653 1457.31 907.599 1457.31 888.67V755.126C1457.31 734.902 1452.67 734.253 1440.85 730.853V725.879C1453.32 721.844 1466.32 716.289 1472.86 712.505C1476.27 710.664 1478.75 709.086 1479.72 709.086C1481.58 709.086 1482.17 710.96 1482.17 713.468V826.82Z" fill="#231F20"/>
<path d="M141.739 1127.04H144.099C150.174 1127.04 156.62 1126.24 156.62 1117.42V1028.88C156.62 1020.06 150.174 1019.26 144.099 1019.26H141.739V1014.11C148.353 1014.11 158.478 1014.82 166.781 1014.82C175.232 1014.82 185.357 1014.11 193.292 1014.11V1019.26H190.93C184.855 1019.26 178.409 1020.06 178.409 1028.88V1117.42C178.409 1126.24 184.855 1127.04 190.93 1127.04H193.292V1132.15C185.192 1132.15 175.03 1131.48 166.596 1131.48C158.292 1131.48 148.353 1132.15 141.739 1132.15V1127.04Z" fill="#231F20"/>
<path d="M192.568 1131.42L192.586 1127.81H190.952C184.915 1127.81 177.707 1126.76 177.671 1117.41V1028.87C177.707 1019.53 184.915 1018.49 190.952 1018.49H192.568V1014.91C184.766 1014.91 174.976 1015.56 166.783 1015.56C158.76 1015.56 149.025 1014.92 142.485 1014.91V1018.49H144.102C150.12 1018.49 157.328 1019.53 157.328 1028.87V1117.41C157.328 1126.76 150.12 1127.81 144.102 1127.81H142.485V1131.42C149.025 1131.33 158.591 1130.73 166.599 1130.73C174.827 1130.73 184.619 1131.36 192.568 1131.42ZM193.293 1132.87C185.138 1132.87 174.995 1132.2 166.599 1132.2C158.313 1132.2 148.374 1132.87 141.742 1132.87H140.999V1132.14V1127.07V1126.35H141.742H144.102C150.232 1126.2 155.823 1125.7 155.86 1117.41V1028.87C155.823 1020.61 150.232 1020.05 144.102 1019.94H140.999V1019.25V1013.44H141.742C148.374 1013.44 158.499 1014.09 166.783 1014.09C175.199 1014.09 185.305 1013.44 193.293 1013.44H194.036V1014.19V1019.94H193.293H190.952C184.803 1020.05 179.175 1020.61 179.157 1028.87V1117.41C179.175 1125.7 184.803 1126.2 190.952 1126.35H194.036V1127.07V1132.87H193.293Z" fill="#231F20"/>
<path d="M309.454 1098.84L309.787 1098.5V1035.11C309.787 1021.26 300.146 1019.25 295.055 1019.25H291.359V1014.13C299.291 1014.13 307.093 1014.82 315.027 1014.82C321.937 1014.82 328.904 1014.13 335.795 1014.13V1019.25H333.306C326.172 1019.25 318.201 1020.57 318.201 1040.69V1117.62C318.201 1123.52 318.405 1129.43 319.242 1134.67H312.814L225.745 1037.66V1107.27C225.745 1122.02 228.605 1127.03 241.628 1127.03H244.489V1132.14C237.246 1132.14 229.961 1131.47 222.681 1131.47C215.121 1131.47 207.317 1132.14 199.719 1132.14V1127.03H202.077C213.745 1127.03 217.311 1119.14 217.311 1105.6V1034.43C217.311 1024.96 209.489 1019.25 201.911 1019.25H199.719V1014.13C206.11 1014.13 212.722 1014.82 219.132 1014.82C224.221 1014.82 229.146 1014.13 234.196 1014.13L309.454 1098.84Z" fill="#231F20"/>
<path d="M309.053 1098.5V1098.44L308.903 1098.33L309.053 1098.5ZM309.461 1098.83L310 1098.35L309.461 1098.83ZM312.805 1133.93H318.416C317.652 1128.86 317.524 1123.21 317.524 1117.63V1040.68C317.524 1020.39 326.013 1018.5 333.295 1018.5H335.079V1014.9C328.41 1014.93 321.739 1015.57 315.034 1015.57C307.289 1015.57 299.746 1014.93 292.093 1014.9V1018.5H295.045C300.265 1018.5 310.5 1020.8 310.5 1035.12L310.296 1099.02L309.944 1099.33L309.369 1099.87L234.207 1014.9C229.171 1014.9 224.268 1015.57 219.142 1015.57C212.955 1015.57 206.582 1014.93 200.453 1014.9L200.434 1018.5H201.92C209.85 1018.5 218.026 1024.56 218.026 1034.44V1105.61C218.026 1119.15 214.254 1127.77 202.087 1127.82L200.453 1127.77V1131.43C207.771 1131.34 215.295 1130.72 222.688 1130.72C229.767 1130.72 236.789 1131.34 243.754 1131.43V1127.82H241.619C228.316 1127.77 225.011 1122.01 225.011 1107.28V1035.76L312.805 1133.93ZM319.232 1135.42L312.266 1135.16L226.459 1039.56V1107.28C226.683 1122.01 228.912 1126.17 241.619 1126.35H245.261V1127.04V1132.86H244.497C237.198 1132.86 229.914 1132.21 222.688 1132.21C215.146 1132.21 207.382 1132.86 199.689 1132.86H198.948V1132.13V1126.35H199.689H202.087C213.27 1126.27 216.448 1119.1 216.597 1105.61V1034.44C216.558 1025.45 209.164 1019.97 201.92 1019.95H198.948V1019.19V1013.43H199.689C206.172 1013.43 212.77 1014.1 219.142 1014.1C224.156 1014.1 229.061 1013.43 234.763 1013.69L309.053 1097.29V1035.12C308.96 1021.68 300.006 1020.06 295.045 1019.95H290.587V1019.19V1013.43H291.348C299.318 1013.43 307.121 1014.1 315.034 1014.1C321.89 1014.1 328.836 1013.43 335.803 1013.43H336.565V1014.12V1019.95H335.803H333.295C326.291 1020.16 319.159 1020.79 318.953 1040.68V1117.63C318.953 1123.5 319.122 1129.4 319.939 1134.56L320.087 1135.42H319.232Z" fill="#231F20"/>
<path d="M361.12 1022.59C348.432 1022.59 347.966 1025.64 345.404 1037.97H340.35C341.038 1033.26 341.857 1028.51 342.395 1023.6C343.044 1018.88 343.396 1014.12 343.396 1009.26H347.466C348.823 1014.33 353.039 1014.12 357.609 1014.12H444.847C449.399 1014.12 453.633 1013.97 453.988 1008.9L457.999 1009.61C457.385 1014.12 456.697 1018.71 456.178 1023.28C455.823 1027.83 455.823 1032.42 455.823 1036.97L450.773 1038.86C450.438 1032.58 449.564 1022.59 438.25 1022.59H410.533V1112.52C410.533 1125.58 416.461 1127.05 424.561 1127.05H427.755V1132.14C421.178 1132.14 409.327 1131.47 400.204 1131.47C390.081 1131.47 378.21 1132.14 371.616 1132.14V1127.05H374.831C384.156 1127.05 388.855 1126.23 388.855 1112.9V1022.59H361.12Z" fill="#231F20"/>
<path d="M427.79 1132.86C421.121 1132.86 409.288 1132.19 400.204 1132.19C390.08 1132.19 378.283 1132.86 371.614 1132.86H370.908V1132.13V1126.34H371.614H374.846C384.172 1126.12 387.924 1126.01 388.11 1112.89V1023.31H361.118V1022.59V1021.88H389.596V1112.89C389.596 1126.43 384.136 1127.83 374.846 1127.83H372.357V1131.39C379.044 1131.33 390.394 1130.73 400.204 1130.73C409.029 1130.73 420.323 1131.33 427.01 1131.39V1127.83H424.557C416.386 1127.83 409.77 1125.84 409.77 1112.52V1021.88H438.248C449.601 1021.9 451.085 1031.52 451.44 1037.8L455.137 1036.45C455.137 1032.06 455.155 1027.64 455.433 1023.16C455.915 1018.85 456.547 1014.53 457.178 1010.2L454.615 1009.77C453.78 1014.68 449.042 1014.96 444.825 1014.9H357.625H356.733C352.741 1014.9 348.43 1014.7 346.925 1009.99H344.102C344.102 1014.68 343.767 1019.19 343.097 1023.72C342.616 1028.35 341.873 1032.82 341.24 1037.24H344.845C347.094 1025.51 348.523 1021.68 361.118 1021.88V1022.59V1023.31C348.634 1023.57 348.915 1025.65 346.125 1038.15L346.033 1038.73H345.419H339.495L339.605 1037.86C340.256 1033.14 341.148 1028.4 341.669 1023.48C342.336 1018.8 342.669 1014.1 342.669 1009.25V1008.51H343.396H348.041L348.152 1009.05C349.321 1013.32 352.424 1013.34 356.733 1013.43H357.625H444.825C449.505 1013.34 452.961 1013.27 453.239 1008.84L453.296 1008.07L454.057 1008.22L458.815 1008.96L458.738 1009.68C458.071 1014.23 457.403 1018.8 456.918 1023.31C456.566 1027.85 456.566 1032.42 456.566 1036.97V1037.48L456.082 1037.69L450.083 1039.88L450.065 1038.86C449.601 1032.52 448.932 1023.31 438.248 1023.31H411.258V1112.52C411.424 1125.28 416.494 1126.17 424.557 1126.34H428.478V1127.05V1132.86H427.79Z" fill="#231F20"/>
<path d="M463.428 1127.04H465.787C471.86 1127.04 478.288 1126.24 478.288 1117.42V1028.88C478.288 1020.06 471.86 1019.26 465.787 1019.26H463.428V1014.11C473.699 1014.11 491.35 1014.82 505.504 1014.82C519.734 1014.82 537.289 1014.11 548.751 1014.11C548.471 1021.41 548.639 1032.6 549.141 1040.03L544.033 1041.38C543.235 1030.4 541.192 1021.62 523.431 1021.62H499.987V1065.86H520.05C530.212 1065.86 532.423 1060.16 533.407 1051.02H538.461C538.142 1057.61 537.959 1064.19 537.959 1070.78C537.959 1077.23 538.142 1083.63 538.461 1090.04L533.407 1091.06C532.423 1080.92 531.9 1074.33 520.218 1074.33H499.987V1113.71C499.987 1124.7 509.756 1124.7 520.551 1124.7C540.874 1124.7 549.81 1123.35 554.881 1104.08L559.599 1105.28C557.408 1114.26 555.383 1123.16 553.86 1132.15C543.066 1132.15 523.6 1131.48 508.384 1131.48C493.153 1131.48 473.05 1132.15 463.428 1132.15V1127.04Z" fill="#231F20"/>
<path d="M553.247 1131.39C554.694 1122.86 556.627 1114.32 558.728 1105.82L555.382 1104.98C550.31 1123.91 540.522 1125.58 520.55 1125.43C509.888 1125.43 499.243 1125.43 499.188 1113.71V1073.61H520.217C532.032 1073.46 533.201 1080.61 534.038 1090.23L537.698 1089.47C537.398 1083.25 537.233 1076.97 537.233 1070.79C537.233 1064.45 537.398 1058.12 537.698 1051.71H534.038C533.11 1060.55 530.378 1066.72 520.031 1066.61H499.188V1020.84H523.43C541.022 1020.75 543.959 1029.83 544.682 1040.41L548.323 1039.43C548.044 1034.66 547.878 1028.59 547.878 1022.94C547.878 1019.99 547.933 1017.29 548.007 1014.9C536.528 1014.93 519.399 1015.57 505.503 1015.57C491.627 1015.57 474.498 1014.93 464.151 1014.9V1018.5H465.786C471.823 1018.5 479.012 1019.54 479.05 1028.86V1117.42C479.012 1126.74 471.823 1127.75 465.786 1127.82H464.151V1131.39C473.978 1131.35 493.54 1130.72 508.384 1130.72C523.299 1130.72 542.324 1131.35 553.247 1131.39ZM553.859 1132.86C543.012 1132.86 523.577 1132.17 508.384 1132.17C493.152 1132.17 473.088 1132.86 463.427 1132.86H462.685V1132.13V1127.05V1126.36H463.427H465.786C471.896 1126.25 477.491 1125.69 477.546 1117.42V1028.86C477.491 1020.64 471.896 1020.08 465.786 1019.93H462.685V1019.25V1013.43H463.427C473.717 1013.43 491.349 1014.1 505.503 1014.1C519.696 1014.1 537.252 1013.43 548.752 1013.43H549.513V1014.18C549.362 1016.72 549.307 1019.71 549.307 1022.94C549.307 1028.75 549.513 1035.14 549.828 1039.95V1040.57L549.289 1040.73L543.345 1042.29L543.326 1041.4C542.324 1030.46 540.873 1022.47 523.43 1022.33H500.653V1065.12H520.031C529.801 1065.04 531.511 1060.05 532.662 1050.93L532.736 1050.28H533.369H539.238V1051.02C538.886 1057.62 538.682 1064.19 538.682 1070.79C538.682 1077.18 538.886 1083.6 539.238 1090.05V1090.62L538.627 1090.77L532.736 1091.92L532.662 1091.14C531.511 1080.83 531.456 1075.19 520.217 1075.06L500.653 1075.02V1113.71C500.672 1123.98 509.516 1123.92 520.55 1123.98C540.93 1123.87 549.066 1122.86 554.157 1103.88L554.324 1103.19L555.049 1103.34L560.453 1104.74L560.305 1105.44C558.113 1114.36 556.106 1123.33 554.584 1132.24L554.472 1132.86H553.859Z" fill="#231F20"/>
<path d="M604.086 1071.27H612.336C629.258 1071.27 638.378 1064.89 638.378 1044.92C638.378 1029.91 628.735 1020.23 613.692 1020.23C608.581 1020.23 606.425 1020.77 604.086 1020.92V1071.27ZM582.442 1032.07C582.442 1019.71 575.682 1019.25 570.442 1019.25H567.359V1014.12C572.764 1014.12 583.26 1014.81 593.588 1014.81C603.694 1014.81 611.83 1014.12 620.821 1014.12C642.074 1014.12 661.006 1019.88 661.006 1043.91C661.006 1059.11 650.897 1068.39 637.544 1073.69L666.468 1116.91C671.185 1124.08 674.528 1126.06 682.834 1127.05V1132.14C677.259 1132.14 671.854 1131.47 666.279 1131.47C661.006 1131.47 655.615 1132.14 650.379 1132.14C637.375 1115.09 626.193 1096.81 615.213 1077.35H604.086V1113.53C604.086 1126.59 610.14 1127.05 617.906 1127.05H620.99V1132.14C611.312 1132.14 601.522 1131.47 591.879 1131.47C583.781 1131.47 575.828 1132.14 567.359 1132.14V1127.05H570.442C576.647 1127.05 582.442 1124.21 582.442 1117.93V1032.07Z" fill="#231F20"/>
<path d="M612.342 1070.55C629.061 1070.39 637.512 1064.59 637.658 1044.94C637.588 1030.2 628.392 1021.04 613.679 1020.95C609.108 1020.95 606.972 1021.36 604.815 1021.59V1070.55H612.342ZM604.054 1071.98H603.331V1020.22L603.961 1020.16C606.285 1019.98 608.55 1019.53 613.679 1019.53C629.061 1019.53 639.09 1029.54 639.127 1044.94C639.071 1065.11 629.376 1071.98 612.342 1071.98H604.054ZM604.054 1076.63H615.609L615.812 1077C626.81 1096.44 637.941 1114.68 650.385 1131.42C655.55 1131.42 660.993 1130.73 666.233 1130.73C671.638 1130.73 676.86 1131.31 682.114 1131.38V1127.67C674.162 1126.72 670.466 1124.34 665.861 1117.34L636.415 1073.32L637.268 1072.97C650.498 1067.77 660.286 1058.74 660.305 1043.88C660.286 1020.46 642.047 1014.98 620.831 1014.91C611.894 1014.91 603.739 1015.56 593.596 1015.56C583.62 1015.56 573.624 1014.93 568.088 1014.91V1018.51H570.431C575.669 1018.51 583.118 1019.36 583.118 1032.07V1117.93C583.118 1124.74 576.803 1127.81 570.431 1127.81H568.088V1131.38C576.245 1131.36 583.918 1130.73 591.849 1130.73C601.322 1130.73 610.855 1131.36 620.214 1131.38V1127.81H617.912C610.204 1127.81 603.331 1126.87 603.331 1113.53V1076.63H604.054ZM682.839 1132.85C677.175 1132.85 671.803 1132.2 666.233 1132.2C661.101 1132.2 655.682 1132.85 649.773 1132.61C636.844 1115.57 625.732 1097.43 614.795 1078.09H604.815V1113.53C604.982 1126.26 610.092 1126.14 617.912 1126.35H621.702V1127.04V1132.85H620.939C611.261 1132.85 601.436 1132.2 591.849 1132.2C583.768 1132.2 575.855 1132.85 567.347 1132.85H566.659V1132.14V1126.35H567.347H570.431C576.525 1126.29 581.613 1123.64 581.669 1117.93V1032.07C581.558 1020.09 575.669 1020.11 570.431 1019.94H566.659V1019.26V1013.44H567.347C572.865 1013.44 583.285 1014.09 593.596 1014.09C603.665 1014.09 611.802 1013.44 620.831 1013.44C642.098 1013.44 661.737 1019.36 661.788 1043.88C661.788 1059.15 651.684 1068.68 638.661 1073.99L667.048 1116.51C671.77 1123.53 674.703 1125.29 682.933 1126.35L683.546 1126.41V1127.04V1132.85H682.839Z" fill="#231F20"/>
<path d="M797.606 1098.84L797.921 1098.5V1035.11C797.921 1021.26 788.298 1019.25 783.246 1019.25H779.512V1014.13C787.483 1014.13 795.209 1014.82 803.199 1014.82C810.144 1014.82 817.056 1014.13 824.006 1014.13V1019.25H821.496C814.382 1019.25 806.411 1020.57 806.411 1040.69V1117.62C806.411 1123.52 806.561 1129.43 807.395 1134.67H801.005L713.935 1037.66V1107.27C713.935 1122.02 716.816 1127.03 729.839 1127.03H732.735V1132.14C725.437 1132.14 718.153 1131.47 710.888 1131.47C703.275 1131.47 695.506 1132.14 687.907 1132.14V1127.03H690.228C701.933 1127.03 705.464 1119.14 705.464 1105.6V1034.43C705.464 1024.96 697.682 1019.25 690.101 1019.25H687.907V1014.13C694.301 1014.13 700.949 1014.82 707.343 1014.82C712.395 1014.82 717.301 1014.13 722.372 1014.13L797.606 1098.84Z" fill="#231F20"/>
<path d="M797.203 1098.5V1098.44L797.109 1098.33L797.203 1098.5ZM797.613 1098.83L798.149 1098.35L797.613 1098.83ZM801.012 1133.93H806.53C805.824 1128.88 805.673 1123.21 805.673 1117.63V1040.68C805.673 1020.39 814.238 1018.54 821.484 1018.5H823.245V1014.9C816.597 1014.93 809.906 1015.57 803.201 1015.57C795.456 1015.57 787.876 1014.93 780.263 1014.9V1018.5H783.252C788.45 1018.54 798.71 1020.8 798.71 1035.12L798.465 1099.02L798.149 1099.33L797.613 1099.91L722.374 1014.9C717.36 1014.9 712.416 1015.57 707.345 1015.57C701.069 1015.57 694.75 1014.93 688.62 1014.9V1018.5H690.089C698.041 1018.54 706.196 1024.52 706.196 1034.44V1105.59C706.196 1119.15 702.35 1127.77 690.221 1127.82H688.62V1131.39C695.942 1131.34 703.465 1130.72 710.895 1130.72C717.953 1130.72 724.978 1131.34 731.979 1131.39V1127.82H729.846C716.522 1127.82 713.198 1122.03 713.16 1107.28V1035.76L801.012 1133.93ZM807.401 1135.42L800.452 1135.16L714.667 1039.56V1107.28C714.869 1122.03 717.101 1126.17 729.846 1126.35H733.429V1127.04V1132.86H732.704C725.383 1132.86 718.122 1132.17 710.895 1132.17C703.334 1132.17 695.494 1132.86 687.914 1132.86H687.114V1132.13V1126.35H687.914H690.221C701.384 1126.3 704.614 1119.1 704.727 1105.59V1034.44C704.69 1025.41 697.354 1019.97 690.089 1019.95H687.114V1019.26V1013.43H687.914C694.345 1013.43 700.975 1014.1 707.345 1014.1C712.326 1014.1 717.209 1013.43 722.878 1013.63L797.203 1097.29V1035.12C797.184 1021.68 788.154 1020.02 783.252 1019.95H778.775V1019.26V1013.43H779.519C787.523 1013.43 795.306 1014.1 803.201 1014.1C810.076 1014.1 817.025 1013.43 823.989 1013.43H824.714V1014.19V1019.95H823.989H821.484C814.516 1020.12 807.326 1020.79 807.142 1040.68V1117.63C807.142 1123.5 807.288 1129.35 808.145 1134.56L808.221 1135.42H807.401Z" fill="#231F20"/>
<path d="M875.886 1033.08H875.551L859.816 1080.92H891.414L875.886 1033.08ZM851.233 1107.97C849.505 1113.71 847.443 1118.14 847.443 1121.13C847.443 1126.23 854.595 1127.04 860.151 1127.04H862.024V1132.13C855.226 1131.8 848.319 1131.48 841.534 1131.48C835.441 1131.48 829.386 1131.8 823.313 1132.13V1127.04H824.297C830.888 1127.04 836.501 1123.16 838.973 1116.06L866.055 1038.52C868.249 1032.24 871.333 1023.81 872.317 1017.51C877.727 1015.68 884.502 1012.31 887.718 1010.27C888.236 1010.08 888.499 1009.95 889.055 1009.95C889.54 1009.95 889.893 1009.95 890.246 1010.44C890.745 1011.79 891.249 1013.31 891.786 1014.67L922.865 1103.08C924.89 1108.99 926.933 1115.26 929.108 1120.34C931.147 1125.05 934.716 1127.04 940.291 1127.04H941.275V1132.13C933.694 1131.8 926.076 1131.48 917.983 1131.48C909.715 1131.48 901.245 1131.8 892.643 1132.13V1127.04H894.498C898.363 1127.04 904.959 1126.41 904.959 1122.17C904.959 1119.96 903.453 1115.4 901.537 1109.99L894.964 1090.37H856.586L851.233 1107.97Z" fill="#231F20"/>
<path d="M875.135 1033.31L875.544 1033.19L875.135 1033.31ZM860.793 1080.21H890.385L875.671 1034.88L860.793 1080.21ZM858.769 1081.67L874.965 1032.36H875.544H875.874V1033.06L875.709 1033.14L875.874 1033.06V1032.36H876.378L892.428 1081.67H858.769ZM893.337 1131.33C901.68 1131.08 909.91 1130.73 917.976 1130.73C925.848 1130.73 933.188 1131.08 940.543 1131.33V1127.83H940.284C934.521 1127.88 930.547 1125.56 928.428 1120.62C926.234 1115.49 924.176 1109.21 922.19 1103.31L891.072 1014.9C890.55 1013.55 890.032 1012.02 889.622 1010.82C889.457 1010.65 889.514 1010.65 889.363 1010.65H889.048C888.713 1010.65 888.511 1010.74 888.083 1010.87C884.815 1012.97 878.011 1016.31 872.997 1017.63C871.975 1024.06 868.929 1032.47 866.721 1038.73L839.691 1116.33C837.106 1123.67 831.183 1127.83 824.29 1127.83H824.026V1131.33C829.808 1131.08 835.679 1130.73 841.546 1130.73C848.085 1130.73 854.752 1131.08 861.217 1131.33V1127.83H860.143C854.625 1127.75 846.932 1127.16 846.748 1121.16C846.748 1117.8 848.792 1113.45 850.482 1107.77L851.226 1107.97L850.482 1107.75L856.057 1089.68H895.437L902.217 1109.76C904.133 1115.2 905.673 1119.69 905.673 1122.18C905.414 1127.36 898.3 1127.73 894.491 1127.83H893.337V1131.33ZM941.23 1132.86C933.673 1132.54 926.069 1132.17 917.976 1132.17C909.708 1132.17 901.289 1132.54 892.636 1132.86L891.873 1132.92V1132.13V1126.28H892.636H894.491C898.37 1126.28 904.171 1125.43 904.171 1122.18C904.209 1120.25 902.74 1115.61 900.866 1110.24L894.439 1091.12H857.135L851.857 1108.18C850.129 1113.97 848.142 1118.43 848.142 1121.16C848.198 1125.28 854.531 1126.28 860.143 1126.28H862.724V1127.07V1132.92L861.961 1132.86C855.2 1132.54 848.269 1132.17 841.546 1132.17C835.472 1132.17 829.379 1132.54 823.324 1132.86L822.581 1132.92V1132.13V1126.28H823.306H824.29C830.589 1126.28 835.825 1122.68 838.259 1115.83L865.346 1038.26C867.573 1031.99 870.601 1023.57 872.07 1016.85C877.366 1015.01 884.142 1011.61 887.428 1009.57C887.913 1009.4 888.36 1009.16 889.048 1009.16C889.457 1009.14 890.385 1009.27 890.889 1010.18C891.407 1011.56 891.925 1013.06 892.428 1014.42L923.583 1102.85C925.57 1108.75 927.595 1114.99 929.784 1119.97C931.733 1124.5 934.86 1126.28 940.284 1126.28H942.03V1127.07V1132.92L941.23 1132.86Z" fill="#231F20"/>
<path d="M948.75 1022.59C936.038 1022.59 935.557 1025.64 933.015 1037.97H927.925C928.608 1033.26 929.465 1028.51 929.964 1023.6C930.651 1018.88 930.986 1014.12 930.986 1009.26H935.039C936.395 1014.33 940.628 1014.12 945.181 1014.12H1032.42C1036.97 1014.12 1041.17 1013.98 1041.52 1008.9L1045.59 1009.61C1044.94 1014.12 1044.29 1018.71 1043.73 1023.28C1043.32 1027.83 1043.32 1032.42 1043.32 1036.97L1038.31 1038.86C1038.03 1032.58 1037.13 1022.59 1025.82 1022.59H998.088V1112.52C998.088 1125.58 1004.01 1127.05 1012.13 1127.05H1015.33V1132.14C1008.75 1132.14 996.916 1131.47 987.777 1131.47C977.649 1131.47 965.785 1132.14 959.169 1132.14V1127.05H962.399C971.745 1127.05 976.482 1126.23 976.482 1112.9V1022.59H948.75Z" fill="#231F20"/>
<path d="M1015.32 1132.86C1008.72 1132.86 996.888 1132.19 987.791 1132.19C977.683 1132.19 965.865 1132.86 959.184 1132.86H958.473V1132.13V1126.34H959.184H962.413C971.741 1126.12 975.456 1126.01 975.696 1112.89V1023.31H948.741V1022.59V1021.88H977.165V1112.89C977.165 1126.43 971.722 1127.75 962.413 1127.83H959.923V1131.41C966.613 1131.33 977.96 1130.73 987.791 1130.73C996.615 1130.73 1007.92 1131.33 1014.61 1131.41L1014.58 1127.83H1012.1C1003.97 1127.75 997.396 1125.84 997.377 1112.52V1021.88H1025.82C1037.2 1021.9 1038.65 1031.52 1038.99 1037.8L1042.67 1036.45C1042.67 1032.06 1042.67 1027.64 1043.02 1023.2C1043.48 1018.85 1044.15 1014.53 1044.74 1010.24L1042.22 1009.77C1041.4 1014.68 1036.67 1014.96 1032.41 1014.9H945.172H944.32C940.327 1014.92 936.038 1014.7 934.489 1009.94H931.725C931.668 1014.68 931.372 1019.19 930.684 1023.72C930.218 1028.38 929.399 1032.82 928.773 1037.24H932.412C934.644 1025.51 936.071 1021.64 948.741 1021.88V1022.59V1023.31C936.184 1023.54 936.48 1025.65 933.731 1038.15L933.599 1038.73H933.024H927.059L927.172 1037.86C927.859 1033.14 928.716 1028.4 929.215 1023.54C929.903 1018.8 930.218 1014.1 930.218 1009.25V1008.51H931H935.571L935.717 1009.05C936.909 1013.32 940.026 1013.34 944.32 1013.43H945.172H1032.41C1037.09 1013.34 1040.53 1013.27 1040.81 1008.84L1040.83 1008.07L1041.64 1008.22L1046.46 1008.96L1046.31 1009.68C1045.58 1014.23 1044.97 1018.8 1044.47 1023.31C1044.15 1027.85 1044.15 1032.42 1044.15 1036.97V1037.48L1043.63 1037.69L1037.63 1039.88V1038.86C1037.2 1032.52 1036.51 1023.31 1025.82 1023.31H998.823V1112.52C998.992 1125.28 1004.06 1126.17 1012.1 1126.34H1016.06V1127.05V1132.86H1015.32Z" fill="#231F20"/>
<path d="M1051.82 1127.04H1054.18C1060.31 1127.04 1066.7 1126.24 1066.7 1117.42V1028.88C1066.7 1020.06 1060.31 1019.26 1054.18 1019.26H1051.82V1014.11C1058.42 1014.11 1068.54 1014.82 1076.83 1014.82C1085.28 1014.82 1095.42 1014.11 1103.41 1014.11V1019.26H1101.05C1094.92 1019.26 1088.47 1020.06 1088.47 1028.88V1117.42C1088.47 1126.24 1094.92 1127.04 1101.05 1127.04H1103.41V1132.15C1095.27 1132.15 1085.13 1131.48 1076.68 1131.48C1068.37 1131.48 1058.42 1132.15 1051.82 1132.15V1127.04Z" fill="#231F20"/>
<path d="M1102.62 1131.39V1127.82H1101.05C1094.97 1127.82 1087.78 1126.74 1087.78 1117.42V1028.86C1087.78 1019.54 1094.97 1018.5 1101.05 1018.5H1102.62V1014.9C1094.82 1014.93 1085.07 1015.57 1076.82 1015.57C1068.8 1015.57 1059.1 1014.93 1052.56 1014.9V1018.5H1054.18C1060.18 1018.5 1067.42 1019.54 1067.42 1028.86V1117.42C1067.42 1126.74 1060.18 1127.82 1054.18 1127.82H1052.56V1131.39C1059.1 1131.3 1068.63 1130.72 1076.68 1130.72C1084.89 1130.72 1094.68 1131.33 1102.62 1131.39ZM1103.41 1132.86C1095.23 1132.86 1085.11 1132.17 1076.68 1132.17C1068.41 1132.17 1058.41 1132.86 1051.82 1132.86H1051.11V1132.13V1127.05V1126.36H1051.82H1054.18C1060.31 1126.25 1065.9 1125.69 1065.92 1117.42V1028.86C1065.9 1020.64 1060.31 1020.06 1054.18 1019.93H1051.11V1019.25V1013.43H1051.82C1058.41 1013.43 1068.57 1014.1 1076.82 1014.1C1085.28 1014.1 1095.4 1013.43 1103.41 1013.43H1104.09V1014.12V1019.93H1103.41H1101.05C1094.86 1020.06 1089.28 1020.64 1089.23 1028.86V1117.42C1089.28 1125.69 1094.86 1126.25 1101.05 1126.36H1104.09V1127.05V1132.86H1103.41Z" fill="#231F20"/>
<path d="M1173.36 1127.24C1206.2 1127.24 1211.87 1098.32 1211.87 1073.69C1211.87 1048.97 1198.57 1019.07 1170.5 1019.07C1140.92 1019.07 1132.14 1045.42 1132.14 1068.05C1132.14 1098.32 1145.99 1127.24 1173.36 1127.24ZM1170.83 1011.62C1206.85 1011.62 1235.59 1033.95 1235.59 1069.96C1235.59 1108.84 1207.71 1134.67 1171.69 1134.67C1135.79 1134.67 1108.49 1110.36 1108.49 1073.97C1108.49 1038.87 1135.69 1011.62 1170.83 1011.62Z" fill="#231F20"/>
<path d="M1131.37 1068.05C1131.43 1045.32 1140.34 1018.31 1170.49 1018.31C1199.23 1018.36 1212.61 1048.84 1212.63 1073.69C1212.61 1098.32 1206.79 1127.95 1173.35 1127.95V1127.24V1126.52C1205.55 1126.5 1211.1 1098.32 1211.18 1073.69C1211.18 1049.18 1197.96 1019.83 1170.49 1019.79C1141.49 1019.83 1132.91 1045.56 1132.85 1068.05C1132.89 1098.19 1146.62 1126.44 1173.35 1126.52V1127.24V1127.95C1145.32 1127.91 1131.43 1098.49 1131.37 1068.05ZM1107.7 1073.99C1107.79 1038.44 1135.31 1010.93 1170.82 1010.86V1011.62V1012.36C1136.03 1012.36 1109.13 1039.22 1109.13 1073.99C1109.19 1109.93 1136.18 1133.91 1171.68 1133.93C1207.33 1133.91 1234.81 1108.42 1234.9 1069.92C1234.88 1034.37 1206.57 1012.4 1170.82 1012.36V1011.62V1010.86C1207.13 1010.93 1236.23 1033.48 1236.29 1069.92C1236.27 1109.2 1208.05 1135.34 1171.68 1135.41C1135.53 1135.34 1107.79 1110.71 1107.7 1073.99Z" fill="#231F20"/>
<path d="M1349.54 1098.84L1349.87 1098.5V1035.12C1349.87 1021.26 1340.23 1019.25 1335.1 1019.25H1331.46V1014.13C1339.36 1014.13 1347.18 1014.82 1355.09 1014.82C1362.08 1014.82 1368.99 1014.13 1375.9 1014.13V1019.25H1373.37C1366.24 1019.25 1358.29 1020.57 1358.29 1040.69V1117.62C1358.29 1123.53 1358.49 1129.43 1359.33 1134.67H1352.89L1265.83 1037.66V1107.27C1265.83 1122.02 1268.69 1127.03 1281.73 1127.03H1284.6V1132.14C1277.33 1132.14 1270.09 1131.47 1262.79 1131.47C1255.19 1131.47 1247.38 1132.14 1239.77 1132.14V1127.03H1242.17C1253.87 1127.03 1257.34 1119.14 1257.34 1105.6V1034.43C1257.34 1024.96 1249.61 1019.25 1241.96 1019.25H1239.77V1014.13C1246.21 1014.13 1252.79 1014.82 1259.24 1014.82C1264.29 1014.82 1269.2 1014.13 1274.27 1014.13L1349.54 1098.84Z" fill="#231F20"/>
<path d="M1349.1 1098.5V1098.44L1348.96 1098.33L1349.1 1098.5ZM1349.53 1098.83L1350.07 1098.35L1349.53 1098.83ZM1352.88 1133.93H1358.47C1357.72 1128.86 1357.58 1123.21 1357.58 1117.63V1040.68C1357.58 1020.38 1366.12 1018.54 1373.36 1018.5H1375.19V1014.9C1368.48 1014.93 1361.81 1015.57 1355.05 1015.57C1347.4 1015.57 1339.83 1014.93 1332.16 1014.9V1018.5H1335.09C1340.37 1018.54 1350.57 1020.84 1350.57 1035.12L1350.37 1099.02L1350.07 1099.33L1349.53 1099.91L1274.25 1014.9C1269.28 1014.9 1264.34 1015.57 1259.23 1015.57C1252.99 1015.57 1246.61 1014.93 1240.5 1014.9V1018.5H1241.95C1249.93 1018.54 1258.09 1024.52 1258.09 1034.44V1105.61C1258.09 1119.15 1254.32 1127.77 1242.16 1127.82H1240.5V1131.39C1247.84 1131.34 1255.34 1130.72 1262.79 1130.72C1269.86 1130.72 1276.88 1131.34 1283.86 1131.39V1127.82H1281.67C1268.41 1127.82 1265.1 1122.03 1265.1 1107.28V1035.76L1352.88 1133.93ZM1359.32 1135.42L1352.32 1135.16L1266.53 1039.56V1107.28C1266.73 1122.03 1268.98 1126.15 1281.67 1126.3H1285.35V1127.06V1132.86H1284.61C1277.29 1132.86 1270.02 1132.21 1262.79 1132.21C1255.22 1132.21 1247.45 1132.86 1239.76 1132.86H1239.07V1132.13V1126.3H1239.76H1242.16C1253.3 1126.27 1256.52 1119.1 1256.61 1105.61V1034.44C1256.61 1025.41 1249.25 1019.97 1241.95 1019.95H1239.07V1019.26V1013.43H1239.76C1246.24 1013.43 1252.84 1014.1 1259.23 1014.1C1264.23 1014.1 1269.09 1013.43 1274.85 1013.69L1349.1 1097.29V1035.12C1349.06 1021.68 1340.09 1020.06 1335.09 1019.95H1330.7V1019.26V1013.43H1331.44C1339.38 1013.43 1347.23 1014.1 1355.05 1014.1C1362.01 1014.1 1368.87 1013.43 1375.89 1013.43H1376.62V1014.12V1019.95H1375.89H1373.36C1366.42 1020.16 1359.21 1020.79 1359.06 1040.68V1117.63C1359.06 1123.5 1359.21 1129.4 1359.99 1134.56L1360.14 1135.42H1359.32Z" fill="#231F20"/>
<path d="M1427.76 1033.08H1427.43L1411.69 1080.92H1443.36L1427.76 1033.08ZM1403.07 1107.97C1401.42 1113.71 1399.38 1118.14 1399.38 1121.13C1399.38 1126.23 1406.52 1127.04 1412.02 1127.04H1413.92V1132.13C1407.14 1131.8 1400.23 1131.48 1393.45 1131.48C1387.3 1131.48 1381.26 1131.8 1375.23 1132.13V1127.04H1376.16C1382.78 1127.04 1388.4 1123.16 1390.91 1116.06L1417.99 1038.52C1420.18 1032.24 1423.21 1023.81 1424.21 1017.51C1429.62 1015.68 1436.38 1012.31 1439.6 1010.27C1440.11 1010.08 1440.47 1009.95 1440.97 1009.95C1441.45 1009.95 1441.77 1009.95 1442.14 1010.44C1442.66 1011.79 1443.15 1013.31 1443.7 1014.67L1474.78 1103.08C1476.77 1108.99 1478.85 1115.26 1481.04 1120.34C1483.04 1125.05 1486.63 1127.04 1492.21 1127.04H1493.2V1132.13C1485.61 1131.8 1477.97 1131.48 1469.87 1131.48C1461.59 1131.48 1453.12 1131.8 1444.5 1132.13V1127.04H1446.38C1450.24 1127.04 1456.87 1126.41 1456.87 1122.17C1456.87 1119.96 1455.33 1115.4 1453.45 1109.99L1446.89 1090.37H1408.55L1403.07 1107.97Z" fill="#231F20"/>
<path d="M1427.13 1033.31L1427.43 1033.19L1427.13 1033.31ZM1412.73 1080.17H1442.32L1427.57 1034.92L1412.73 1080.17ZM1410.67 1081.61L1426.96 1032.36H1427.43H1427.76V1033.06L1427.59 1033.14L1427.76 1033.06V1032.36H1428.32L1444.29 1081.61H1410.67ZM1445.24 1131.35C1453.58 1131.08 1461.83 1130.73 1469.89 1130.73C1477.73 1130.73 1485.09 1131.08 1492.44 1131.33V1127.83H1492.18C1486.46 1127.83 1482.45 1125.56 1480.35 1120.62C1478.08 1115.49 1476.08 1109.21 1474.07 1103.31L1442.99 1014.9C1442.49 1013.55 1441.93 1012.02 1441.52 1010.87C1441.4 1010.65 1441.4 1010.65 1441.26 1010.65H1440.97C1440.61 1010.65 1440.43 1010.74 1439.98 1010.87C1436.71 1012.93 1429.97 1016.33 1424.9 1017.63C1423.9 1024.06 1420.81 1032.47 1418.66 1038.73L1391.57 1116.33C1388.99 1123.67 1383.14 1127.83 1376.17 1127.83H1375.89V1131.33C1381.75 1131.08 1387.58 1130.73 1393.47 1130.73C1400.01 1130.73 1406.66 1131.08 1413.21 1131.33V1127.83H1412.02C1406.55 1127.75 1398.83 1127.16 1398.63 1121.14C1398.66 1117.8 1400.77 1113.47 1402.42 1107.77L1403.07 1107.97L1402.42 1107.75L1407.96 1089.68H1447.41L1454.16 1109.76C1456.05 1115.2 1457.56 1119.69 1457.56 1122.18C1457.32 1127.36 1450.22 1127.73 1446.34 1127.83H1445.24V1131.35ZM1493.17 1132.86C1485.55 1132.56 1477.91 1132.19 1469.89 1132.19C1461.62 1132.19 1453.15 1132.56 1444.54 1132.86L1443.79 1132.92V1132.13V1126.36H1444.5H1446.34C1450.27 1126.36 1456.11 1125.43 1456.14 1122.18C1456.16 1120.25 1454.66 1115.63 1452.73 1110.24L1446.32 1091.12H1409L1403.8 1108.18C1402.11 1113.99 1400.06 1118.43 1400.12 1121.14C1400.12 1125.28 1406.45 1126.36 1412.02 1126.36H1414.62V1127.05V1132.92L1413.86 1132.86C1407.12 1132.56 1400.18 1132.19 1393.47 1132.19C1387.37 1132.19 1381.32 1132.56 1375.23 1132.86L1374.48 1132.92V1132.13V1126.36H1375.23H1376.17C1382.47 1126.28 1387.76 1122.66 1390.21 1115.83L1417.28 1038.26C1419.43 1031.99 1422.48 1023.57 1423.95 1016.85C1429.28 1015.01 1436.09 1011.61 1439.33 1009.57C1439.78 1009.4 1440.3 1009.2 1440.97 1009.2C1441.4 1009.14 1442.29 1009.27 1442.82 1010.2C1443.31 1011.54 1443.81 1013.06 1444.34 1014.42L1475.47 1102.85C1477.47 1108.75 1479.51 1114.99 1481.72 1120.01C1483.71 1124.5 1486.74 1126.28 1492.18 1126.36H1493.91V1127.05V1132.92L1493.17 1132.86Z" fill="#231F20"/>
<path d="M1535.83 1115.57C1535.83 1122.33 1540.53 1124.36 1545.94 1125.05C1552.86 1125.57 1560.47 1125.57 1568.29 1124.72C1575.35 1123.9 1581.48 1119.81 1584.48 1115.57C1587.18 1111.84 1588.66 1107.14 1589.74 1103.39H1594.64C1592.75 1113.03 1590.39 1122.52 1588.34 1132.14C1573.49 1132.14 1558.59 1131.48 1543.77 1131.48C1528.87 1131.48 1513.97 1132.14 1499.1 1132.14V1127.04H1501.43C1507.57 1127.04 1514.16 1126.24 1514.16 1115.72V1028.87C1514.16 1020.05 1507.57 1019.25 1501.43 1019.25H1499.1V1014.13C1508.06 1014.13 1516.86 1014.82 1525.8 1014.82C1534.44 1014.82 1542.89 1014.13 1551.53 1014.13V1019.25H1547.27C1540.87 1019.25 1535.83 1019.42 1535.83 1028.39V1115.57Z" fill="#231F20"/>
<path d="M1587.77 1131.39C1589.73 1122.23 1591.95 1113.24 1593.72 1104.11H1590.25C1589.22 1107.84 1587.72 1112.35 1585.04 1116.01C1581.91 1120.41 1575.63 1124.54 1568.29 1125.43C1563.85 1125.91 1559.47 1126.12 1555.34 1126.12C1552.07 1126.12 1548.86 1125.97 1545.81 1125.76C1540.35 1125.15 1535 1122.81 1535.05 1115.58V1028.38C1535.05 1018.96 1540.98 1018.5 1547.28 1018.5H1550.77V1014.9C1542.45 1014.93 1534.2 1015.57 1525.8 1015.57C1517.02 1015.57 1508.45 1014.93 1499.82 1014.9V1018.5H1501.43C1507.49 1018.5 1514.86 1019.54 1514.86 1028.84V1115.72C1514.86 1126.65 1507.51 1127.82 1501.43 1127.82H1499.82V1131.39C1514.39 1131.35 1529.06 1130.72 1543.77 1130.72C1558.44 1130.72 1573.1 1131.35 1587.77 1131.39ZM1588.35 1132.86C1573.45 1132.86 1558.59 1132.19 1543.77 1132.19C1528.87 1132.19 1513.97 1132.86 1499.07 1132.86H1498.39V1132.13V1126.36H1499.07H1501.43C1507.56 1126.21 1513.4 1125.76 1513.45 1115.72V1028.84C1513.4 1020.64 1507.62 1020.06 1501.43 1019.93H1498.39V1019.25V1013.43H1499.07C1508.08 1013.43 1516.87 1014.1 1525.8 1014.1C1534.4 1014.1 1542.86 1013.43 1551.53 1013.43H1552.2V1014.12V1019.93H1551.53H1547.28C1540.72 1020.12 1536.64 1019.82 1536.49 1028.38V1115.58C1536.56 1121.88 1540.67 1123.55 1546 1124.33C1548.93 1124.54 1552.11 1124.65 1555.34 1124.65C1559.47 1124.65 1563.76 1124.45 1568.18 1123.98C1575.05 1123.16 1580.96 1119.21 1583.89 1115.17C1586.5 1111.54 1587.98 1106.91 1588.96 1103.22L1589.15 1102.64H1589.73H1595.52L1595.36 1103.57C1593.46 1113.21 1591.14 1122.66 1589.1 1132.32L1588.91 1132.86H1588.35Z" fill="#231F20"/>
<path d="M1589.74 1027.2H1591.82C1594.12 1027.2 1595.18 1025.47 1595.18 1022.67C1595.18 1019.83 1593.49 1018.84 1591.69 1018.84H1589.74V1027.2ZM1583.72 1036.6V1035.71C1585.87 1035.41 1586.3 1035.51 1586.3 1034.11V1020.96C1586.3 1019.08 1586.1 1018.45 1583.78 1018.56V1017.64H1592.91C1595.99 1017.64 1598.89 1019.16 1598.89 1022.37C1598.89 1025.05 1597.17 1026.96 1594.69 1027.74L1597.59 1031.84C1598.99 1033.65 1600.53 1035.41 1601.55 1036.02V1036.6H1598.08C1596.42 1036.6 1594.98 1033.07 1591.69 1028.41H1589.74V1034.3C1589.74 1035.51 1590.14 1035.41 1592.3 1035.71V1036.6H1583.72ZM1592.56 1041.63C1600.53 1041.63 1606.64 1034.87 1606.64 1027.2C1606.64 1019.53 1600.64 1012.67 1592.56 1012.67C1584.53 1012.67 1578.44 1019.53 1578.44 1027.2C1578.44 1034.87 1584.53 1041.63 1592.56 1041.63ZM1592.56 1009.37C1602.74 1009.37 1610.35 1017.21 1610.35 1027.2C1610.35 1037.19 1602.74 1044.94 1592.56 1044.94C1582.4 1044.94 1574.74 1037.19 1574.74 1027.2C1574.74 1017.21 1582.4 1009.37 1592.56 1009.37Z" fill="#231F20"/>
<path d="M537.131 412.955C537.131 254.832 665.325 126.663 823.477 126.663C981.624 126.663 1109.82 254.832 1109.82 412.955C1109.82 571.074 981.624 699.249 823.477 699.249C665.325 699.249 537.131 571.074 537.131 412.955Z" fill="white"/>
<path d="M996.656 407.315C996.524 333.987 950.698 271.477 886.105 246.711V567.914C950.698 543.115 996.524 480.662 996.656 407.315ZM762.894 567.843V246.73C698.376 271.59 652.601 334.029 652.437 407.315C652.601 480.586 698.376 543.04 762.894 567.843ZM824.535 135.827C674.575 135.883 553.075 257.383 553.057 407.315C553.075 557.228 674.575 678.708 824.535 678.728C974.499 678.708 1096.03 557.228 1096.07 407.315C1096.03 257.383 974.499 135.883 824.535 135.827ZM823.866 704.369C659.767 705.132 524.705 572.226 524.705 410.408C524.705 233.582 659.767 111.268 823.866 111.306H900.786C1062.93 111.268 1210.93 233.511 1210.93 410.408C1210.93 572.151 1062.93 704.369 900.786 704.369H823.866Z" fill="#264B9A"/>
</g>
<rect x="9.27632" y="9.27632" width="1717.97" height="1250.45" rx="109.461" stroke="#264B9A" stroke-width="18.5526"/>
<defs>
<clipPath id="clip0_3854_7134">
<rect width="1469.37" height="1024.11" fill="white" transform="translate(141 111.316)"/>
</clipPath>
</defs>
</svg>
