<svg width="24" height="24" viewBox="0 0 24 24" fill="none" xmlns="http://www.w3.org/2000/svg">
<g clip-path="url(#clip0_3531_102427)">
<path fill-rule="evenodd" clip-rule="evenodd" d="M4 9.23244C3.4022 8.88663 3 8.24028 3 7.5V6C3 4.89543 3.89543 4 5 4H19C20.1046 4 21 4.89543 21 6V7.5C21 8.24028 20.5978 8.88663 20 9.23244V18C20 19.1046 19.1046 20 18 20H6C4.89543 20 4 19.1046 4 18V9.23244ZM5 5.5H19C19.2761 5.5 19.5 5.72386 19.5 6V7.5C19.5 7.77614 19.2761 8 19 8H5C4.72386 8 4.5 7.77614 4.5 7.5V6C4.5 5.72386 4.72386 5.5 5 5.5ZM5.5 9.5V18C5.5 18.2761 5.72386 18.5 6 18.5H18C18.2761 18.5 18.5 18.2761 18.5 18V9.5H5.5Z" fill="#7F54B3"/>
</g>
<defs>
<clipPath id="clip0_3531_102427">
<rect width="24" height="24" fill="white"/>
</clipPath>
</defs>
</svg>
