<svg width="216" height="144" viewBox="0 0 216 144" fill="none" xmlns="http://www.w3.org/2000/svg">
<path d="M84.2267 129.19L93.0059 105.051H115.632L124.411 129.19H141.36V132.651H104.319H67.2773V129.19H84.2267Z" fill="#BEA0F2"/>
<path d="M88.2357 32.4683H26.5V94.204H88.2357V32.4683Z" fill="#BEA0F2"/>
<path d="M41.944 64.2371L34.6265 66.8808C31.9356 67.854 31.6777 69.5754 32.3714 70.7484C33.2102 72.161 35.2112 72.0267 37.3974 70.5668C39.4347 69.205 42.5578 67.0261 43.571 66.2961L41.944 64.2371Z" fill="#271B3D"/>
<path d="M72.7861 64.2371C72.7861 64.2371 78.887 66.4414 80.1036 66.8808C82.7945 67.854 83.0524 69.5754 82.3588 70.7484C81.5199 72.161 79.5189 72.0267 77.3328 70.5668C75.2955 69.205 72.1724 67.0261 71.1592 66.2961L72.7861 64.2371Z" fill="#271B3D"/>
<path d="M40.3203 57.7617L49.301 69.7421L49.6751 69.5314L47.271 55.906L40.3203 57.7617Z" fill="white"/>
<path d="M46.2171 69.4626C42.2333 69.4626 39.5605 65.9401 39.5605 62.4066C39.5605 58.5463 43.0395 57.032 46.2861 57.032C49.5327 57.032 53.2114 58.7279 53.2114 62.1597C53.2114 66.0962 50.3207 69.4626 46.2171 69.4626Z" fill="#BEA0F2"/>
<path d="M48.5087 69.085C48.7629 68.9978 49.0062 68.8961 49.2422 68.7799L47.1759 57.0756C46.8781 57.0465 46.5804 57.032 46.2862 57.032C44.2925 57.032 42.2116 57.6058 40.9043 58.9385L48.5087 69.085Z" fill="white"/>
<path d="M61.5166 62.1597C61.5166 58.7279 65.1953 57.032 68.4419 57.032C71.6885 57.032 75.1675 58.5463 75.1675 62.4066C75.1675 65.9437 72.491 69.4626 68.5109 69.4626C64.4073 69.4626 61.5166 66.0962 61.5166 62.1597Z" fill="#BEA0F2"/>
<path d="M66.2199 69.085C65.9657 68.9978 65.7224 68.8961 65.4863 68.7799L67.5527 57.0756C67.8504 57.0465 68.1482 57.032 68.4424 57.032C70.4361 57.032 72.5169 57.6058 73.8243 58.9385L66.2199 69.085Z" fill="white"/>
<path d="M68.5808 54.9327C61.3323 54.9327 59.3313 60.1912 57.363 60.1912C55.3947 60.1912 53.3974 54.9327 46.1453 54.9327C41.555 54.9327 36.7578 57.8852 34.2666 59.0836V62.6824H36.943C37.3134 64.9884 39.1764 71.645 46.2143 71.645C54.0801 71.645 54.2544 63.6338 57.3594 63.6338C60.4643 63.6338 60.6423 71.645 68.5045 71.645C75.5424 71.645 77.4053 64.9884 77.7758 62.6824H80.4522V59.0836C77.961 57.8852 73.1637 54.9327 68.5735 54.9327H68.5808ZM46.2179 69.4624C42.2341 69.4624 39.5613 65.9399 39.5613 62.4064C39.5613 58.5461 43.0403 57.0318 46.2869 57.0318C49.5335 57.0318 53.2122 58.7277 53.2122 62.1594C53.2122 66.096 50.3215 69.4624 46.2179 69.4624ZM68.5118 69.4624C64.4082 69.4624 61.5175 66.096 61.5175 62.1594C61.5175 58.7277 65.1962 57.0318 68.4428 57.0318C71.6893 57.0318 75.1683 58.5461 75.1683 62.4064C75.1683 65.9435 72.4919 69.4624 68.5118 69.4624Z" fill="#271B3D"/>
<path d="M154.394 39.7709H92.6582V43.4024H154.394V39.7709Z" fill="#271B3D"/>
<path d="M123.526 46.8737H92.6582V50.5052H123.526V46.8737Z" fill="#271B3D"/>
<path d="M154.394 32.5078H92.6582V36.1393H154.394V32.5078Z" fill="#271B3D"/>
<path d="M157.975 68.1405V78.1162H174.705C174.705 78.1162 172.907 81.7804 172.907 85.8804C172.907 89.9804 175.555 94.0985 180.657 94.0985C185.759 94.0985 188.407 89.8424 188.407 85.8804C188.407 81.9184 186.609 78.1162 186.609 78.1162H198.84V71.801V68.1405C204.937 71.5904 212.073 70.421 212.073 63.2597C212.073 56.0984 204.937 54.929 198.84 58.379V48.4032H186.609C186.609 48.4032 188.407 44.739 188.407 40.639C188.407 36.539 185.759 32.4209 180.657 32.4209C175.555 32.4209 172.907 36.677 172.907 40.639C172.907 44.601 174.705 48.4032 174.705 48.4032H157.975V58.379C164.072 54.929 171.208 56.0984 171.208 63.2597C171.208 70.421 164.072 71.5904 157.975 68.1405Z" fill="#271B3D"/>
<path d="M154.394 85.077H92.6582V94.1558H154.394V85.077Z" fill="#BEA0F2"/>
<path d="M182.441 17.5566H26.5V28.4512H182.441V17.5566Z" fill="#271B3D"/>
<path d="M30.8186 24.5912C31.7652 24.5912 32.5326 23.8238 32.5326 22.8772C32.5326 21.9305 31.7652 21.1631 30.8186 21.1631C29.8719 21.1631 29.1045 21.9305 29.1045 22.8772C29.1045 23.8238 29.8719 24.5912 30.8186 24.5912Z" fill="white"/>
<path d="M37.0324 24.5912C37.9791 24.5912 38.7465 23.8238 38.7465 22.8772C38.7465 21.9305 37.9791 21.1631 37.0324 21.1631C36.0858 21.1631 35.3184 21.9305 35.3184 22.8772C35.3184 23.8238 36.0858 24.5912 37.0324 24.5912Z" fill="white"/>
<path d="M43.2483 24.5912C44.1949 24.5912 44.9623 23.8238 44.9623 22.8772C44.9623 21.9305 44.1949 21.1631 43.2483 21.1631C42.3016 21.1631 41.5342 21.9305 41.5342 22.8772C41.5342 23.8238 42.3016 24.5912 43.2483 24.5912Z" fill="white"/>
<path d="M26.6045 98.979V99.8529C26.6045 102.979 29.2155 105.516 32.4403 105.516H176.709C179.931 105.516 182.545 102.982 182.545 99.8529V98.979H26.6045Z" fill="#BEA0F2"/>
<path d="M182.545 13.5367V12.6628C182.545 9.53716 179.934 7 176.709 7H32.4403C29.2192 7 26.6045 9.53364 26.6045 12.6628V13.5367H182.545Z" fill="#BEA0F2"/>
<path d="M113.238 59.9834H92.6582V80.5632H113.238V59.9834Z" fill="#BEA0F2"/>
<path d="M97.3691 70.271H108.529" stroke="#271B3D" stroke-width="0.998666" stroke-miterlimit="10"/>
<path d="M102.947 64.6932V75.8529" stroke="#271B3D" stroke-width="0.998666" stroke-miterlimit="10"/>
</svg>
