<svg width="24" height="24" viewBox="0 0 24 24" fill="none" xmlns="http://www.w3.org/2000/svg">
<g clip-path="url(#clip0_3531_102451)">
<path fill-rule="evenodd" clip-rule="evenodd" d="M16.7274 7.27242C14.1238 4.66877 9.90693 4.66151 7.29428 7.25064L8.95538 8.91174L4.95517 9.27539L5.31883 5.27519L6.2033 6.15966C9.41849 2.96801 14.6122 2.97528 17.8184 6.18146C21.0318 9.39491 21.0318 14.605 17.8184 17.8184C14.6049 21.0319 9.39489 21.0319 6.18143 17.8184C4.84913 16.4861 4.06847 14.8086 3.84131 13.0736L5.37111 12.8733C5.55568 14.283 6.18883 15.6439 7.2724 16.7274C9.88333 19.3384 14.1165 19.3384 16.7274 16.7274C19.3384 14.1165 19.3384 9.88335 16.7274 7.27242ZM12.3428 7.19998L11.3142 12.3428C11.3142 12.7269 11.5247 13.0617 11.8366 13.2384L16.0894 16.0736L13.2725 11.8482L12.3428 7.19998Z" fill="#7F54B3"/>
</g>
<defs>
<clipPath id="clip0_3531_102451">
<rect width="24" height="24" fill="white"/>
</clipPath>
</defs>
</svg>
