<svg width="24" height="24" viewBox="0 0 24 24" fill="none" xmlns="http://www.w3.org/2000/svg">
<g clip-path="url(#clip0_3531_102458)">
<path fill-rule="evenodd" clip-rule="evenodd" d="M5.51803 8.7499C6.4181 6.95819 8.03913 5.59111 10.0004 5.0294C9.53586 5.56854 9.13624 6.20526 8.81 6.9052C8.54486 7.47404 8.32401 8.09292 8.15376 8.7499H5.51803ZM4.96313 10.2499C4.82421 10.8104 4.75049 11.3966 4.75049 12C4.75049 12.6034 4.8242 13.1896 4.96311 13.75H7.86366C7.7893 13.1834 7.75049 12.598 7.75049 11.9999C7.75049 11.4018 7.7893 10.8164 7.86366 10.2499H4.96313ZM9.37822 10.2499C9.29498 10.8091 9.25049 11.3951 9.25049 11.9999C9.25049 12.6049 9.29498 13.1908 9.37822 13.75H14.6224C14.7056 13.1908 14.7501 12.6048 14.7501 12C14.7501 11.3951 14.7056 10.8091 14.6224 10.2499H9.37822ZM16.1369 10.2499C16.2113 10.8164 16.2501 11.4019 16.2501 12C16.2501 12.5981 16.2113 13.1835 16.1369 13.75H19.0379C19.1768 13.1896 19.2505 12.6034 19.2505 12C19.2505 11.3966 19.1768 10.8104 19.0378 10.2499H16.1369ZM18.4829 8.7499H15.8468C15.6766 8.09293 15.4557 7.47405 15.1906 6.90522C14.8643 6.2052 14.4646 5.56842 14 5.02925C15.9616 5.59086 17.5828 6.95802 18.4829 8.7499ZM14.2895 8.7499L9.71108 8.7499C9.84059 8.31954 9.99462 7.91424 10.1696 7.5389C10.6649 6.47617 11.3084 5.69228 12.0003 5.23265C12.6922 5.69227 13.3357 6.47617 13.831 7.53892C14.006 7.91425 14.16 8.31955 14.2895 8.7499ZM5.51798 15.25H8.15377C8.33333 15.943 8.56922 16.5936 8.85402 17.1878C9.17162 17.8505 9.5563 18.455 10.0006 18.9707C8.0392 18.409 6.41807 17.0418 5.51798 15.25ZM14.2895 15.25H9.71109C9.84969 15.7106 10.0164 16.1424 10.2067 16.5395C10.6978 17.5643 11.3264 18.3196 12.0003 18.7672C12.6922 18.3076 13.3357 17.5237 13.831 16.461C14.006 16.0857 14.16 15.6804 14.2895 15.25ZM15.1906 17.0947C15.4557 16.5259 15.6766 15.907 15.8468 15.25H18.483C17.5828 17.042 15.9615 18.4092 13.9999 18.9708C14.4646 18.4316 14.8643 17.7948 15.1906 17.0947ZM3.25049 12C3.25049 7.16751 7.168 3.25 12.0005 3.25C16.833 3.25 20.7505 7.16751 20.7505 12C20.7505 16.8325 16.833 20.75 12.0005 20.75C7.168 20.75 3.25049 16.8325 3.25049 12Z" fill="#7F54B3"/>
</g>
<defs>
<clipPath id="clip0_3531_102458">
<rect width="24" height="24" fill="white"/>
</clipPath>
</defs>
</svg>
